<svg
              width="483"
              height="548"
              viewBox="0 0 483 548"
              fill="none"
              xmlns="http://www.w3.org/2000/svg"
            >
                <path fill-rule="evenodd" clip-rule="evenodd" d="M336.35 0.750461L232.519 1.25094L229.308 3.83088C225.304 7.04868 222.16 11.921 221.178 16.4361C220.764 18.339 219.999 28.066 219.477 38.0511C218.361 59.4727 218.193 60.6218 216.204 60.6218C214.064 60.6218 205.263 66.9426 201.429 71.233C196.608 76.6284 188.779 90.738 185.613 99.7398C184.076 104.109 182.745 107.583 182.655 107.46C182.564 107.336 181.681 103.482 180.693 98.8939C177.199 82.6705 170.09 68.7953 159.33 57.195C145.821 42.6319 130.805 33.4555 115.238 30.2504C99.2519 26.959 83.4232 32.6145 71.4017 45.9145C68.0884 49.5808 64.2729 54.721 62.9222 57.3373C61.5716 59.9535 59.316 62.977 57.9097 64.0565C56.5033 65.1359 55.0927 67.1673 54.7745 68.5696C54.1566 71.2929 55.8609 77.3045 57.2504 77.3045C57.7003 77.3045 58.3351 78.7402 58.661 80.4939C59.7128 86.1621 62.2309 90.6693 69.2947 99.5298C73.1035 104.308 77.6754 110.356 79.4549 112.971C86.1608 122.827 91.1666 135.906 92.2843 146.489C92.7882 151.258 92.7198 151.461 89.8531 153.73C88.2307 155.014 86.9037 156.479 86.9037 156.986C86.9037 157.493 88.007 156.995 89.3551 155.878C90.704 154.762 92.0336 153.849 92.3096 153.849C93.2247 153.849 92.8085 161.029 91.0873 174.947C90.1156 182.809 89.4446 193.022 89.5188 198.82L89.6488 208.956L85.1107 209.209C77.4289 209.638 73.1845 213.221 69.6121 222.293C66.861 229.278 63.1696 231.322 53.2525 231.353C47.5891 231.37 45.5454 231.796 42.9235 233.51C36.816 237.5 33.1693 246.72 35.3312 252.702C35.8706 254.195 38.1034 256.742 40.2931 258.361C43.3354 260.61 44.9739 262.852 47.2396 267.863C52.5071 279.513 56.0703 282.404 65.1609 282.404C69.3698 282.404 71.5427 281.793 75.5287 279.49C81.7256 275.911 85.2719 275.803 88.516 279.096C88.7068 279.289 87.5199 280.963 85.8789 282.815C81.8193 287.399 78.4841 297.532 77.8662 307.158C77.2947 316.062 78.9577 325.48 82.8509 335.396C85.2238 341.44 85.3268 342.239 84.8211 350.607C84.2362 360.284 82.6297 368.026 79.942 374.129C77.4036 379.892 76.7756 384.207 77.6746 389.716C78.5711 395.212 81.5956 400.404 85.5243 403.188C88.169 405.063 88.1614 405.064 64.3547 405.067C42.6483 405.071 40.1412 405.244 36.0479 407.024C19.2147 414.346 13.0237 446.249 24.4493 466.799C26.2811 470.093 29.2972 473.895 31.3012 475.433L34.8804 478.18L23.1164 478.673C10.1722 479.215 6.76096 480.4 2.93443 485.687C0.178281 489.495 -0.233664 492.72 0.0972428 507.892C0.418864 522.574 1.08067 524.405 7.62874 528.719L11.3523 531.173L82.1004 531.44L152.849 531.706L154.156 535.343C155.958 540.354 159.994 546.999 161.7 547.759C164.283 548.912 166.842 545.843 167.922 540.299C168.478 537.438 169.116 534.325 169.339 533.381C169.714 531.79 171.757 531.663 196.956 531.663H224.169L227.078 535.162C231.008 539.887 237.026 544.421 239.37 544.421C242.261 544.421 243.774 541.173 243.276 536.039L242.852 531.663H255.986C266.8 531.663 269.354 531.391 270.446 530.122C272.883 527.288 271.435 523.813 267.816 523.813C266.396 523.813 265.548 522.873 264.608 520.258C263.906 518.303 263.331 516.537 263.331 516.333C263.331 516.129 299.988 515.962 344.791 515.962C425.126 515.962 426.275 515.934 427.94 513.999C428.869 512.92 429.629 511.263 429.63 510.319C429.632 508.234 433.091 449.664 438.077 367.289C441.514 310.511 447.512 209.4 453.212 112.142C456.778 51.3089 457.145 42.1864 456.105 40.2591L454.914 38.0511H344.772C235.755 38.0511 234.613 38.0707 232.942 40.0137C232.013 41.0932 231.252 42.7497 231.248 43.6937C231.246 44.6388 230.109 64.6208 228.721 88.0992C227.333 111.578 226.183 131.891 226.166 133.241C226.135 135.653 226.112 135.662 224.79 133.731C223.482 131.823 223.463 131.835 224.081 134.222C225.527 139.8 225.277 148.115 221.99 203.406C220.098 235.251 217.921 272.455 217.153 286.084L215.756 310.863L213.586 310.804C212.392 310.772 209.59 310.396 207.359 309.97C202.351 309.013 201.107 309.994 195.806 319.082C193.72 322.657 191.82 325.57 191.585 325.553C191.349 325.538 189.827 322.792 188.202 319.452C186.577 316.112 183.578 310.975 181.539 308.037C178.052 303.015 177.889 302.51 178.795 299.595C179.326 297.889 179.76 295.67 179.76 294.663C179.76 293.086 179.416 293.214 177.283 295.589L174.807 298.348L168.039 292.052C164.316 288.589 156.219 282.367 150.044 278.222C143.87 274.078 138.255 270.299 137.566 269.824C136.513 269.1 136.682 268.399 138.621 265.444C140.319 262.857 140.929 260.797 140.929 257.653C140.929 255.302 141.689 251.647 142.618 249.529C145.683 242.537 144.712 235.814 139.832 230.26C138.236 228.444 136.665 225.965 136.34 224.75C135.728 222.46 133.828 221.796 132.897 223.548C132.57 224.163 130.725 224.301 128.134 223.901C125.582 223.508 122.095 223.754 119.336 224.524C113.318 226.202 109.77 224.954 103.844 219.074C101.35 216.598 97.5062 213.511 95.3029 212.214C91.3354 209.876 91.2915 209.797 90.704 203.917C90.0701 197.56 90.5462 189.503 92.4599 174.218C96.462 142.248 91.7677 125.713 71.384 99.992C60.849 86.6979 57.1888 78.2859 61.9396 78.2859C63.1485 78.2859 64.7067 77.225 65.7383 75.7C68.7156 71.3007 67.6604 65.3204 63.5891 63.5217L61.4813 62.5894L63.0075 59.4766C65.5923 54.2058 74.1545 44.1599 79.6077 40C98.1756 25.8364 124.57 28.8275 147.37 47.6799C160.509 58.5443 169.283 70.0966 174.713 83.6832C177.404 90.4152 180.604 102.386 180.604 105.72C180.604 106.283 178.989 106.819 177.017 106.909L173.429 107.074L176.806 107.466C178.663 107.681 180.436 108.159 180.747 108.528C181.058 108.897 181.739 113.614 182.26 119.011C185.324 150.689 191.854 169.615 205.87 187.444L210.148 192.885L208.374 221.697C207.399 237.545 206.487 250.651 206.347 250.823C206.208 250.995 202.128 248.961 197.28 246.302C180.948 237.347 174.016 230.325 168.327 216.974C164.396 207.751 163.205 199.752 162.144 175.438C161.104 151.562 159.434 142.143 152.756 122.467L150.931 117.089L152.803 115.327C153.832 114.358 154.425 113.274 154.119 112.919C153.813 112.564 153.114 112.796 152.564 113.434C152.015 114.073 151.295 114.595 150.963 114.595C150.632 114.595 148.371 110.29 145.94 105.027C139.384 90.8352 132.488 78.8805 132.488 81.7068C132.488 82.0326 134.379 85.5576 136.69 89.5388C142.427 99.4219 148.803 114.242 148.294 116.507C148.031 117.674 148.386 118.506 149.259 118.771C150.623 119.186 155.948 135.616 157.686 144.771C158.508 149.103 157.627 150.296 155.463 147.781C154.913 147.142 154.172 146.981 153.817 147.425C153.461 147.868 153.67 148.437 154.281 148.69C154.893 148.942 156.301 150.096 157.41 151.254C159.719 153.662 161.189 163.307 161.189 176.048V183.385L157.601 185.278C153.997 187.18 155.063 188.008 158.92 186.303C160.972 185.396 160.984 185.426 161.564 193.163C162.792 209.523 167.568 222.087 176.546 232.579C181.445 238.303 183.821 240.105 194.401 246.119L206.606 253.057L206.227 258.654C204.988 276.937 204.685 285.552 205.268 285.97C205.632 286.231 205.929 285.827 205.929 285.071C205.929 284.315 206.5 274.242 207.199 262.688C210.51 207.923 211.976 183.4 213.618 155.321C214.596 138.589 215.543 124.718 215.722 124.496C215.902 124.275 216.745 124.827 217.597 125.723C220.25 128.514 220.722 127.507 218.198 124.443L215.8 121.534L217.218 97.2109C221.432 24.9689 221.974 17.3674 223.131 14.2762C224.795 9.83175 228.329 5.77981 232.432 3.61302C235.754 1.85937 240.43 1.78381 346.846 1.7632C456.038 1.74162 457.852 1.77302 461.279 3.70134C463.194 4.77983 465.558 6.91424 466.532 8.44512C469.748 13.5029 470.019 16.9376 468.793 37.1767C462.412 142.581 458.74 204.472 449.062 369.743C440.072 523.284 440.787 512.96 438.839 517.319C437.011 521.407 434.919 523.834 430.895 526.531C428.569 528.089 422.803 528.27 360.408 528.734L292.454 529.238L359.564 529.439C413.49 529.599 428.307 529.367 434.989 528.256C444.266 526.714 447.631 524.736 451.267 518.687C454.098 513.976 454.293 511.951 457.98 448.74C461.227 393.078 463.25 359.079 465.919 315.279C466.873 299.626 468.395 274.455 469.302 259.342C470.208 244.23 471.719 219.059 472.659 203.406C474.453 173.523 475.851 149.919 480.652 68.4725C482.459 37.8175 483.315 17.5833 482.895 15.4224C480.675 3.99574 471.161 -0.439896 449.888 0.0340891C444.549 0.152831 393.457 0.475686 336.35 0.750461ZM341.933 13.2723C340.955 14.2173 339.92 16.3959 339.634 18.1142C339.216 20.6343 339.535 21.7255 341.282 23.7569C344.016 26.9355 347.22 26.9757 349.894 23.8658C355.571 17.2673 348.098 7.32247 341.933 13.2723ZM455.48 41.4485C455.74 42.2374 453.822 79.4429 451.216 124.126C444.991 230.895 444.383 241.14 438.055 345.945C435.366 390.472 433.078 428.852 430.532 472.107C429.235 494.134 427.807 512.583 427.358 513.106C426.482 514.124 264.683 514.48 263.273 513.466C261.921 512.496 262.44 497.227 264.001 492.026C265.211 487.995 265.914 487.049 268.396 486.113C270.886 485.173 271.325 484.578 271.192 482.326C271.039 479.76 271.197 479.652 275.098 479.652C279.761 479.652 281.312 478.163 280.908 474.069C280.678 471.739 280.2 471.262 277.825 470.998C275.578 470.747 274.791 470.058 273.902 467.563C271.872 461.864 270.698 449.611 271.099 438.3C271.463 428.01 271.622 427.181 273.508 425.745C280.174 420.666 282.51 417.894 285.138 411.938C287.776 405.961 287.931 405.065 287.618 397.635C287.143 386.333 283.477 379.909 274.727 375.05C259.801 366.76 240.539 381.563 240.539 401.324V405.071H225.687H210.835L211.345 400.41C211.625 397.845 212.414 385.812 213.099 373.668C215.586 329.571 216.142 323.279 217.74 321.167C218.556 320.087 219.699 318.135 220.281 316.828C221.184 314.797 221.121 314.269 219.845 313.183C219.023 312.486 217.993 311.776 217.554 311.605C217.06 311.414 217.128 305.539 217.735 296.114C218.272 287.764 221.843 227.258 225.669 161.656C229.496 96.0549 232.91 41.8488 233.256 41.1972C233.742 40.2836 259.05 40.0137 344.445 40.0137C440.671 40.0137 455.068 40.2002 455.48 41.4485ZM217.408 72.1525C217.095 77.9542 216.241 91.3131 215.508 101.838C214.776 112.363 214.174 121.636 214.171 122.446C214.144 129.233 210.283 189.35 209.841 189.863C209.331 190.457 202.721 181.458 198.971 175.064C191.013 161.496 186.923 147.681 184.335 125.622C182.854 113.01 182.856 112.461 184.369 107.473C188.976 92.2964 197.812 76.2447 205.436 69.2046C209.381 65.5609 215.425 61.6767 217.229 61.6247C217.653 61.613 217.731 66.1732 217.408 72.1525ZM58.7386 69.6992C57.7197 75.8021 57.5121 76.228 56.4814 74.332C55.2557 72.0799 55.5317 68.3135 57.0672 66.342C59.2966 63.4785 59.6562 64.2007 58.7386 69.6992ZM63.6853 65.1713C67.3532 66.8081 66.785 74.4145 62.8395 76.5047C59.4722 78.2888 58.7006 76.6097 59.8723 70.0495C60.8692 64.4677 61.1892 64.0584 63.6853 65.1713ZM41.3964 84.5556C40.8638 86.114 40.5978 87.5879 40.8055 87.8284C41.4268 88.5506 43.148 84.1611 42.7411 82.8932C42.5343 82.2485 41.9291 82.9963 41.3964 84.5556ZM332.762 84.1856C325.078 85.4251 315.439 88.691 308.559 92.3867C286.244 104.372 268.853 128.632 262.392 156.793C259.726 168.411 259.684 190.003 262.306 201.147C267.912 224.975 282.174 245.763 300.051 256.167C310.565 262.285 328.245 266.407 338.776 265.196C361.174 262.62 377.971 253.386 392.487 235.669C407.428 217.433 414.922 197.322 415.844 172.985C416.323 160.347 414.884 149.679 411.147 138.147C406.389 123.466 395.014 106.896 383.602 98.0225C369.69 87.2062 348.981 81.5694 332.762 84.1856ZM355.798 86.6616C369.516 89.4427 381.739 96.5112 391.68 107.413C402.299 119.059 410.275 135.567 413.286 152.135C414.954 161.318 414.453 184.051 412.392 192.612C405.779 220.082 388.647 243.744 366.918 255.414C348.053 265.547 324.549 266.329 305.806 257.445C283.405 246.827 266.745 222.611 262.472 194.454C260.966 184.534 261.811 164.284 264.118 155.001C275.803 107.981 315.394 78.4704 355.798 86.6616ZM32.0339 86.6017C32.0339 86.8578 33.1735 87.7528 34.5664 88.5899C35.9592 89.427 37.0988 89.7302 37.0988 89.2631C37.0988 88.796 36.1315 87.902 34.9488 87.2759C32.5936 86.0276 32.0339 85.8991 32.0339 86.6017ZM43.0079 93.4966C45.7699 95.3317 47.2666 95.3101 45.1681 93.4652C44.2665 92.6732 42.937 92.0403 42.2136 92.0589C41.3702 92.0815 41.6556 92.5977 43.0079 93.4966ZM36.4024 95.475C35.8216 96.9548 35.5211 98.3679 35.733 98.6142C36.3053 99.2806 38.1 95.0265 37.7547 93.8214C37.591 93.2503 36.9824 93.9941 36.4024 95.475ZM163.51 107.925C161.77 108.462 160.345 109.347 160.345 109.891C160.345 110.435 161.01 110.581 161.822 110.216C162.634 109.851 164.344 109.306 165.621 109.007C166.897 108.707 167.942 108.075 167.942 107.603C167.942 106.606 167.729 106.622 163.51 107.925ZM188.202 108.519C188.202 109.027 189.247 109.689 190.523 109.988C191.799 110.287 193.51 110.832 194.322 111.197C195.134 111.562 195.799 111.421 195.799 110.881C195.799 110.342 194.754 109.612 193.478 109.258C192.201 108.904 190.491 108.384 189.679 108.104C188.867 107.823 188.202 108.01 188.202 108.519ZM330.161 110.28C327.735 111.686 324.857 114.225 323.764 115.923C319.235 122.96 319.059 124.02 317.796 151.824C316.596 178.272 316.722 181.043 319.392 187.045C323.826 197.013 338.198 200.647 347.297 194.1C354.15 189.168 356.811 183.204 357.459 171.322C359.515 133.593 359.631 127.11 358.324 122.556C354.586 109.523 341.394 103.773 330.161 110.28ZM201.708 113.412C201.708 114.399 207.658 117.82 208.226 117.16C208.445 116.903 207.068 115.772 205.166 114.643C203.265 113.516 201.708 112.961 201.708 113.412ZM141.773 126.862C140.739 128.808 140.078 130.617 140.306 130.881C140.534 131.146 141.542 129.741 142.547 127.762C143.552 125.782 144.212 123.973 144.015 123.742C143.816 123.513 142.807 124.916 141.773 126.862ZM368.554 134.887C368.304 136.41 367.858 146.047 367.563 156.302C366.916 178.817 366.156 185.936 363.791 191.615C360.115 200.443 351.467 207.791 342.892 209.374L339.304 210.036V204.944V199.853L336.139 200.158C333 200.459 332.971 200.502 332.715 205.158L332.457 209.854L329.338 209.194C321.858 207.615 314.41 200.867 310.493 192.121C308.224 187.054 307.976 179.186 309.15 149.486C309.513 140.34 309.514 133.198 309.156 133.616C308.218 134.706 306.664 177.893 307.345 183.982C308.145 191.153 311.11 197.453 316.257 202.922C320.357 207.279 326.521 210.766 330.119 210.766C332.456 210.766 332.738 212.239 332.102 221.113L331.507 229.412H320.259C309.592 229.412 308.943 229.525 307.697 231.593C306.037 234.347 306.04 235.742 307.709 237.683C308.857 239.017 312.496 239.225 334.721 239.225C359.283 239.225 360.482 239.139 362.096 237.262C364.129 234.899 364.162 234.4 362.47 231.593C361.224 229.523 360.579 229.412 349.808 229.412H338.46V220.715V212.018L343.269 210.896C349.948 209.336 354.415 206.604 359.153 201.18C363.602 196.085 366.884 188.904 367.547 182.805C367.783 180.642 368.392 168.568 368.902 155.971C369.765 134.66 369.658 128.184 368.554 134.887ZM135.909 141.827C134.805 146.447 134.776 147.664 135.798 146.44C136.7 145.36 137.975 138.147 137.264 138.147C137.002 138.147 136.392 139.804 135.909 141.827ZM126.579 140.11C126.579 140.65 128.383 141.039 130.588 140.976C134.168 140.872 134.326 140.778 132.066 140.11C128.332 139.005 126.579 139.005 126.579 140.11ZM114.55 140.813C113.273 141.037 112.228 141.654 112.228 142.183C112.228 143.296 118.131 142.295 119.361 140.973C120.183 140.089 118.899 140.047 114.55 140.813ZM140.085 141.887C140.085 142.398 141.687 143.288 143.646 143.866C147.578 145.027 149.072 144.593 145.9 143.213C141.592 141.338 140.085 140.994 140.085 141.887ZM101.676 145.944C99.6934 147.035 98.9269 147.835 99.8191 147.881C101.343 147.961 106.319 145.373 106.319 144.501C106.319 143.675 105.125 144.047 101.676 145.944ZM227.132 150.659C227.187 151.603 227.522 153.702 227.877 155.321C228.451 157.949 228.532 157.764 228.621 153.603C228.676 151.039 228.341 148.942 227.877 148.942C227.412 148.942 227.077 149.714 227.132 150.659ZM133.332 159.304C133.332 162.037 133.66 163.542 134.176 163.171C134.64 162.838 135.02 160.825 135.02 158.698C135.02 156.57 134.64 154.83 134.176 154.83C133.712 154.83 133.332 156.844 133.332 159.304ZM164.6 157.529C164.651 158.625 169.63 165.206 169.63 164.176C169.63 162.92 165.958 156.807 165.199 156.8C164.85 156.796 164.581 157.123 164.6 157.529ZM78.8927 164.634C77.5631 166.247 76.6633 167.786 76.8929 168.054C77.1234 168.321 78.5947 167.001 80.1631 165.119C81.7307 163.238 82.6306 161.699 82.1621 161.699C81.6936 161.699 80.2222 163.019 78.8927 164.634ZM227.666 167.465C226.729 172.367 226.842 175.071 227.931 173.805C228.424 173.231 228.71 170.824 228.564 168.457L228.299 164.153L227.666 167.465ZM134.176 172.035C134.176 173.286 136.768 179.622 137.115 179.219C137.707 178.529 135.672 171.513 134.878 171.513C134.492 171.513 134.176 171.747 134.176 172.035ZM168.826 174.702C168.179 176.457 167.482 178.333 167.275 178.873C167.069 179.413 167.665 178.971 168.599 177.892C170.456 175.746 171.861 171.513 170.717 171.513C170.322 171.513 169.472 172.948 168.826 174.702ZM70.1102 176.953C68.9984 178.842 68.2918 180.626 68.5409 180.914C69.1605 181.634 72.7532 175.641 72.4079 174.464C72.256 173.944 71.2219 175.063 70.1102 176.953ZM226.188 186.397C226.188 192.466 226.607 192.325 227.398 185.988C227.78 182.93 227.671 181.326 227.084 181.326C226.568 181.326 226.188 183.475 226.188 186.397ZM142.146 186.755C143.047 187.547 144.947 188.166 146.366 188.13C148.723 188.07 148.618 187.943 145.15 186.673C140.43 184.944 140.097 184.953 142.146 186.755ZM63.7596 189.808C62.956 192.245 63.8423 192.577 64.9169 190.243C65.4352 189.116 65.507 188.196 65.0756 188.196C64.6451 188.196 64.0525 188.921 63.7596 189.808ZM226.43 202.425C226.437 205.124 226.6 206.111 226.794 204.619C226.988 203.128 226.983 200.92 226.783 199.712C226.583 198.505 226.424 199.726 226.43 202.425ZM227.475 216.654C228.535 222.523 229.664 224.542 229.12 219.598C228.852 217.169 228.234 214.741 227.744 214.201C227.124 213.517 227.043 214.26 227.475 216.654ZM131.274 228.313C129.717 231.813 127.452 239.283 127.435 240.973C127.429 241.664 128.752 243.586 130.377 245.245C132.823 247.741 133.332 248.932 133.332 252.16C133.332 257.193 129.715 261.796 125.757 261.796C115.026 261.796 113.284 246.304 123.584 242.473C125.585 241.728 126.272 240.69 127.076 237.197C128.492 231.038 130.673 225.486 131.676 225.486C132.16 225.486 131.985 226.714 131.274 228.313ZM231.272 230.492C231.243 232.937 233.021 238.244 233.868 238.244C234.898 238.244 234.871 238.096 232.96 233.199C232.042 230.846 231.282 229.628 231.272 230.492ZM417.81 236.772C417.213 237.608 416.915 238.512 417.148 238.781C417.38 239.051 418.058 238.589 418.654 237.753C419.251 236.917 419.549 236.013 419.317 235.743C419.085 235.473 418.407 235.936 417.81 236.772ZM236.318 245.733C236.318 246.829 239.874 253.083 240.249 252.646C240.785 252.024 237.809 245.113 237.006 245.113C236.628 245.113 236.318 245.392 236.318 245.733ZM409.866 248.521C408.617 250.425 407.967 251.982 408.424 251.982C409.415 251.982 413.102 246.183 412.533 245.52C412.315 245.267 411.114 246.617 409.866 248.521ZM138.466 249.038C139.883 249.038 140.085 249.777 140.085 254.968C140.085 258.229 139.711 261.431 139.254 262.082C138.796 262.734 137.433 264.703 136.224 266.457C133.7 270.118 131.713 270.484 129.533 267.684C128.693 266.604 127.621 265.721 127.151 265.721C126.682 265.721 126.534 265.997 126.823 266.333C127.114 266.67 126.571 268.721 125.619 270.892C124.186 274.158 124.055 275.266 124.859 277.319C125.718 279.511 125.551 280.125 123.43 282.592L121.028 285.385L116.246 281.196C113.617 278.892 111.447 276.633 111.425 276.176C111.403 275.719 113.489 272.558 116.062 269.151C120.504 263.269 120.929 262.959 124.45 263.02C126.633 263.06 129.077 262.386 130.393 261.384C133.144 259.288 135.326 253.533 134.617 250.246C134.19 248.267 134.35 247.925 135.468 248.424C136.226 248.762 137.575 249.038 138.466 249.038ZM400.213 259.984C398.66 261.598 397.579 263.137 397.812 263.407C398.044 263.677 399.504 262.579 401.057 260.966C402.61 259.352 403.691 257.812 403.459 257.542C403.227 257.272 401.765 258.371 400.213 259.984ZM244.414 260.078C245.485 262.278 248.412 265.721 249.211 265.721C250.135 265.721 245.495 259.025 244.499 258.922C244.123 258.883 244.084 259.404 244.414 260.078ZM389.331 270.013C386.767 271.971 385.777 273.616 387.21 273.536C388.18 273.483 392.894 268.808 392.453 268.338C392.238 268.111 390.834 268.864 389.331 270.013ZM133.077 270.628C137.587 270.628 162.415 287.654 170.336 296.179L173.152 299.209L169.07 304.446C166.824 307.326 163.848 311.468 162.455 313.65C161.062 315.832 159.476 317.837 158.931 318.106C157.378 318.871 155.754 315.137 152.793 303.993C147.707 284.852 141.838 276.824 130.505 273.507C126.372 272.297 125.944 271.758 127.592 269.843C128.267 269.058 128.886 268.992 129.449 269.646C129.913 270.186 131.546 270.628 133.077 270.628ZM254.045 271.434C254.045 271.942 255.375 273.536 257 274.977C260.261 277.868 261.065 277.039 258.055 273.889C255.492 271.207 254.045 270.322 254.045 271.434ZM115.47 282.266C117.949 284.501 120.438 286.329 121.002 286.329C121.565 286.329 123.226 284.892 124.691 283.134C126.656 280.777 127.146 279.554 126.558 278.473C124.778 275.2 125.561 274.259 129.536 274.892C140.045 276.567 147.637 286.976 151.971 305.653C152.949 309.868 154.503 314.834 155.423 316.69L157.098 320.063L155.134 321.828C154.053 322.799 150.201 325.255 146.574 327.286L139.98 330.98L140.428 336.469C140.917 342.461 143.707 351.097 145.153 351.097C146.65 351.097 152.338 347.446 155.194 344.652C156.664 343.214 159.58 339.246 161.674 335.835L165.482 329.632L169.878 332.227C172.957 334.046 175.993 334.943 180.018 335.223C185.4 335.598 185.748 335.763 185.516 337.827C185.236 340.312 186.974 343.247 188.727 343.247C190.893 343.247 189.905 344.957 185.416 348.984C177.278 356.282 170.622 358.148 161.949 355.565C158.99 354.684 155.722 353.318 154.688 352.53C151.065 349.771 151.001 351.259 154.329 360.769C155.664 364.581 156.55 367.939 156.299 368.231C155.563 369.086 135.745 368.825 120.707 367.761C105.044 366.655 103.011 367.052 98.8593 372.031C95.4321 376.142 93.3918 386.41 93.8063 397.466C93.9633 401.648 93.8603 405.071 93.5783 405.071C93.2956 405.071 91.7736 404.568 90.195 403.954C83.181 401.224 78.5179 394.008 78.4807 385.825C78.4698 383.375 79.4853 379.167 81.0689 375.106C84.3349 366.733 86.0257 357.614 86.0452 348.275C86.057 342.305 85.5522 339.555 83.1632 332.574C78.0536 317.641 77.764 303.857 82.3182 292.281C86.257 282.269 89.9131 279.214 101.202 276.499C108.089 274.843 108.489 274.842 109.696 276.481C110.392 277.427 112.99 280.03 115.47 282.266ZM376.563 279.517C375.002 280.623 373.921 281.758 374.163 282.039C374.701 282.665 379.516 279.85 380.242 278.485C381.069 276.931 379.65 277.328 376.563 279.517ZM265.019 280.912C265.019 281.693 271.903 285.523 272.358 284.995C272.59 284.725 271.239 283.589 269.356 282.473C265.84 280.387 265.019 280.092 265.019 280.912ZM364.629 286.115C360.923 288.151 360.88 288.186 361.404 288.795C362.061 289.559 368.005 286.443 368.005 285.335C368.005 284.177 368.267 284.116 364.629 286.115ZM139.752 290.657C142.552 296.479 144.584 308.046 143.95 314.543C143.604 318.086 143.747 319.695 144.409 319.695C145.093 319.695 145.259 316.753 144.984 309.553C144.649 300.799 144.235 298.514 141.962 292.87C140.515 289.272 138.956 286.329 138.501 286.329C138.045 286.329 138.608 288.276 139.752 290.657ZM278.01 288.115C278.688 289.391 284.381 291.625 285.031 290.871C285.494 290.332 283.753 289.377 279.475 287.827C278.169 287.354 277.659 287.455 278.01 288.115ZM350.489 291.353C348.98 291.859 347.746 292.53 347.746 292.845C347.746 293.684 353.939 292.22 354.879 291.159C355.878 290.033 354.203 290.106 350.489 291.353ZM291.61 293.019C292.074 293.573 293.974 294.307 295.831 294.651C299.946 295.41 298.167 293.78 293.72 292.717C291.704 292.235 291.033 292.33 291.61 293.019ZM98.7217 294.626C98.7217 295.41 99.6064 298.886 100.688 302.349C106.792 321.899 118.192 332.336 133.543 332.428C140.33 332.469 137.973 330.762 130.588 330.289C116.334 329.376 106.989 319.648 101.322 299.823C99.4553 293.293 98.7217 291.827 98.7217 294.626ZM335.084 295.161C333.15 295.882 333.221 295.954 335.928 296.03C337.553 296.075 339.452 295.684 340.148 295.161C341.144 294.413 340.964 294.228 339.304 294.293C338.144 294.338 336.244 294.729 335.084 295.161ZM305.96 296.143C306.247 296.682 308.074 297.092 310.02 297.055C312.77 297.001 313.182 296.798 311.869 296.143C309.482 294.95 305.326 294.95 305.96 296.143ZM320.944 296.845C322.22 297.07 324.311 297.07 325.587 296.845C326.863 296.62 325.819 296.437 323.266 296.437C320.712 296.437 319.668 296.62 320.944 296.845ZM176.775 300.751C175.71 302.64 175.31 304.977 175.45 308.491C175.632 313.062 175.407 313.761 172.998 316.119C171.539 317.546 169.867 318.713 169.282 318.713C168.697 318.713 166.616 322.471 164.658 327.064C160.676 336.409 154.378 344.683 148.676 348.065L145.091 350.191L143.755 346.474C143.02 344.43 142.228 340.31 141.995 337.316L141.571 331.875L145.239 329.956C150.111 327.407 157.998 321.438 161.005 318.025C162.335 316.515 164.625 313.221 166.094 310.705C168.743 306.166 177.222 296.79 177.931 297.615C178.134 297.851 177.614 299.262 176.775 300.751ZM186.56 319.109C190.601 326.721 190.651 326.914 189.3 329.575C186.658 334.773 181.242 335.766 173.621 332.451C171.139 331.372 168.437 329.918 167.617 329.221C166.207 328.023 166.204 327.731 167.548 323.824C168.329 321.553 169.492 319.695 170.131 319.695C170.769 319.695 172.533 318.406 174.049 316.831C176.489 314.296 176.806 313.385 176.806 308.889V303.811L179.624 307.582C181.175 309.657 184.296 314.843 186.56 319.109ZM351.967 310.863C351.185 311.449 331.07 311.819 299.418 311.829C249.271 311.844 248.099 311.887 246.448 313.807C244.275 316.333 244.289 320.701 246.481 323.435L248.202 325.583L300.717 325.788C329.601 325.902 354.562 325.865 356.187 325.707C357.812 325.55 370.425 325.126 384.215 324.766C400.786 324.332 409.606 323.741 410.226 323.018C410.741 322.418 411.199 320.475 411.242 318.702C411.383 312.961 410.788 312.829 384.516 312.791C365.573 312.762 360.407 312.475 358.72 311.353C356.247 309.711 353.743 309.528 351.967 310.863ZM359.564 313.807C364.858 319.962 356.517 328.716 350.911 322.889C349.045 320.949 349.002 315.988 350.831 313.639C352.721 311.211 357.408 311.3 359.564 313.807ZM348.3 316.996C348.257 319.289 348.535 321.94 348.918 322.884C349.578 324.509 346.94 324.601 299.682 324.601H249.748L247.623 322.131C246.059 320.313 245.652 319.084 246.078 317.47C246.397 316.265 246.705 315.233 246.764 315.178C248.942 313.114 254.182 312.882 299.312 312.855L348.377 312.825L348.3 316.996ZM214.223 325.456C215.061 326.073 214.261 327.57 211.047 331.407C208.685 334.226 206.282 336.354 205.708 336.134C204.289 335.592 203.92 331.058 205.088 328.52C206.586 325.266 211.656 323.565 214.223 325.456ZM213.1 352.161C212.401 363.72 211.46 378.698 211.008 385.444C210.557 392.191 210.166 398.594 210.14 399.674C210.114 400.753 208.47 396.999 206.489 391.332C204.507 385.665 202.259 379.923 201.493 378.573C198.932 374.06 196.449 343.247 198.645 343.247C199.257 343.247 200.458 342.348 201.314 341.249C202.169 340.15 204.413 338.443 206.298 337.457C208.184 336.47 210.647 334.5 211.771 333.08C212.895 331.659 213.94 330.642 214.092 330.821C214.246 330.999 213.799 340.602 213.1 352.161ZM195.942 345.56C196.254 346.1 196.741 350.77 197.025 355.935C197.308 361.1 197.742 367.203 197.988 369.495C198.423 373.551 198.38 373.641 196.434 372.781C192.914 371.226 181.36 369.542 169.783 368.897L158.54 368.271L155.999 361.56C154.602 357.87 153.587 354.701 153.744 354.518C153.901 354.336 156.305 355.081 159.086 356.173C169.235 360.158 179.406 357.284 188.622 347.825C192.632 343.709 194.539 343.119 195.942 345.56ZM99.0501 350.723C105.746 356.012 110.822 357.454 122.78 357.466C131.004 357.473 134.993 357.032 138.698 355.701C145.044 353.422 144.366 352.453 137.854 354.494C125.251 358.443 111.668 357.14 102.174 351.072C96.532 347.465 94.6622 347.256 99.0501 350.723ZM320 369.834C311.528 371.735 303.68 378.726 299.629 387.982C297.842 392.066 297.519 394.156 297.519 401.636C297.519 409.113 297.841 411.202 299.622 415.254C310.067 439.031 340.784 434.542 348.209 408.153C354.177 386.942 338.524 365.678 320 369.834ZM335.515 374.121C343.744 378.802 348.055 387.247 348.096 398.768C348.117 404.659 347.704 406.7 345.371 412.206C342.488 419.016 339.235 422.699 332.551 426.724C327.076 430.02 316.826 430.052 311.447 426.787C306.264 423.642 303.258 420.202 300.616 414.394C298.727 410.241 298.39 408.281 298.42 401.636C298.448 395.091 298.831 392.94 300.717 388.695C304.397 380.419 311.281 373.841 318.623 371.588C323.076 370.22 330.654 371.357 335.515 374.121ZM174.534 375.667C191.744 380.828 199.803 386.958 200.633 395.522C201.17 401.064 200.134 406.82 195.229 425.545C191.011 441.647 191.051 440.412 194.444 449.476L195.822 453.156H193.327C189.398 453.156 189.456 454.97 193.396 455.306C196.928 455.609 196.952 455.638 199.325 462.383C200.636 466.108 201.708 469.531 201.708 469.988C201.708 470.862 182.043 471.185 181.301 470.323C181.066 470.049 183.134 462.432 185.897 453.395C192.367 432.233 198.109 410.183 199.211 402.275C199.956 396.928 199.865 395.539 198.572 392.481C195.366 384.9 186.298 379.909 167.164 375.199C161.949 373.915 157.428 372.547 157.115 372.16C156.16 370.975 164.463 372.648 174.534 375.667ZM273.36 375.84C277.085 377.157 282.423 382.823 284.589 387.759C289.559 399.085 285.677 415.099 276.335 421.812C274.705 422.982 273.194 423.733 272.976 423.48C272.758 423.227 273.074 421.299 273.678 419.197C274.453 416.496 275.199 415.458 276.219 415.661C279.015 416.215 281.058 414.032 281.058 410.492C281.058 408.654 280.678 406.877 280.214 406.543C279.743 406.204 279.37 401.645 279.37 396.239C279.37 390.905 279.052 386.314 278.664 386.034C278.276 385.755 274.383 388.589 270.012 392.331L262.065 399.134L261.643 392.044C261.41 388.144 260.904 385.012 260.517 385.085C259.585 385.26 246.957 395.787 245.124 397.918C243.773 399.489 243.856 399.751 246.545 402.384L249.402 405.18L245.604 404.881L241.805 404.58L242.02 399.806C242.823 381.91 257.906 370.377 273.36 375.84ZM375.29 377.344C369.738 379.494 362.838 386.945 360.468 393.351C353.743 411.524 364.105 430.814 380.668 430.952C388.086 431.014 393.787 428.012 399.112 421.237C415.823 399.981 398.631 368.305 375.29 377.344ZM394.64 381.054C400.639 385.367 403.747 391.656 404.17 400.344C404.581 408.807 402.855 414.543 398.09 420.552C393.613 426.199 389.096 428.771 382.594 429.379C362.783 431.227 352.184 404.7 365.635 386.935C370.87 380.021 376.092 377.438 384.11 377.798C389.508 378.039 391.154 378.548 394.64 381.054ZM318.677 386.671C318.367 387.876 316.484 411.255 316.503 413.658C316.508 414.333 316.988 414.883 317.568 414.881C318.808 414.877 335.102 400.445 335.044 399.403C334.984 398.344 321.014 385.444 319.928 385.444C319.413 385.444 318.85 385.997 318.677 386.671ZM368.475 389.615C368.169 390.776 366.298 414.97 366.311 417.583C366.322 419.754 367.67 418.937 375.359 412.105C379.508 408.417 383.377 405.06 383.956 404.644C384.778 404.053 384.879 405.408 384.417 410.858C383.993 415.859 384.101 417.828 384.798 417.828C385.332 417.828 389.557 414.447 394.186 410.313C401.18 404.068 402.429 402.558 401.583 401.372C398.864 397.564 388.085 388.259 386.968 388.756C386.134 389.128 385.713 390.834 385.673 394C385.56 403.015 385.236 403.065 377.12 395.329C373.114 391.512 369.603 388.388 369.317 388.388C369.031 388.388 368.651 388.941 368.475 389.615ZM263.753 403.108C265.236 405.013 265.228 405.071 263.462 405.071C262.206 405.071 261.643 404.463 261.643 403.108C261.643 402.029 261.773 401.146 261.934 401.146C262.094 401.146 262.913 402.029 263.753 403.108ZM98.6644 408.482C104.567 410.903 114.967 412.015 138.397 412.729L160.767 413.412L143.884 413.903C128.134 414.36 126.823 414.541 124.361 416.582C119.288 420.79 118.559 424.148 118.559 443.343C118.559 458.752 118.733 460.859 120.248 463.848C123.752 470.767 125.1 471.276 140.777 471.619C148.522 471.788 155.163 472.277 155.537 472.704C155.911 473.131 155.963 474.66 155.651 476.101L155.086 478.722L96.3033 478.451C41.9535 478.201 37.315 478.05 34.7909 476.446C30.3001 473.593 26.0692 467.954 23.2734 461.094C20.7586 454.925 20.6379 454.065 20.6379 442.341C20.6379 430.434 20.724 429.852 23.4127 423.502C26.4491 416.332 31.898 409.957 36.4362 408.267C38.1228 407.639 50.1671 407.195 67.1708 407.134C89.8337 407.052 95.8018 407.308 98.6644 408.482ZM279.953 408.639C280.244 409.522 280.096 410.957 279.623 411.828C278.861 413.234 275.092 413.441 246.128 413.669L213.491 413.926L212.665 411.398C212.21 410.006 211.838 408.456 211.838 407.951C211.838 407.398 225.234 407.034 245.63 407.034C276.137 407.034 279.474 407.19 279.953 408.639ZM159.188 419.686C158.916 421.63 158.275 429.847 157.762 437.944C157.249 446.041 156.576 456.64 156.266 461.498L155.702 470.33H141.623C128.712 470.33 127.346 470.161 125.162 468.297C120.481 464.303 119.828 461.212 119.827 443.058C119.825 428.508 120.023 426.131 121.516 422.729C122.447 420.609 124.061 418.308 125.104 417.615C126.936 416.399 154.442 414.855 158.114 415.763C159.408 416.083 159.596 416.766 159.188 419.686ZM272.757 417.09C270.089 428.713 269.811 431.157 269.827 442.852C269.839 451.247 270.319 457.896 271.231 462.295C271.993 465.972 272.617 469.394 272.617 469.9C272.617 470.451 263.331 470.82 249.507 470.82H226.397L224.701 462.97L223.005 455.119H243.168C255.804 455.119 263.331 454.759 263.331 454.155C263.331 453.558 255.563 453.092 242.915 452.929L222.499 452.666L221.405 447.759C220.804 445.06 220.305 442.522 220.295 442.116C220.287 441.711 229.966 441.38 241.805 441.38C255.593 441.38 263.331 441.028 263.331 440.399C263.331 439.77 255.482 439.418 241.473 439.418C222.32 439.418 219.552 439.225 219.103 437.865C217.652 433.469 217.343 433.53 240.961 433.53C255.311 433.53 263.331 433.178 263.331 432.548C263.331 431.918 255.162 431.567 240.513 431.567C222.996 431.567 217.618 431.282 217.364 430.34C213.708 416.713 213.662 416.383 215.376 415.866C216.27 415.596 229.611 415.484 245.02 415.618C266.968 415.809 272.978 416.128 272.757 417.09ZM203.367 473.7C205.571 478.488 205.134 478.671 191.578 478.671C178.022 478.671 177.586 478.488 179.79 473.7C180.585 471.974 181.651 471.802 191.578 471.802C201.505 471.802 202.572 471.974 203.367 473.7ZM278.878 472.397C280.459 473.102 280.631 475.831 279.201 477.494C278.459 478.356 271.492 478.671 253.123 478.671C226.157 478.671 227.032 478.838 227.032 473.684C227.032 471.871 227.954 471.802 252.288 471.802C266.178 471.802 278.144 472.07 278.878 472.397ZM155.28 482.582V485.54H109.821H64.3615L61.5049 487.778C57.2487 491.113 56.5405 493.589 56.5295 505.167C56.5219 513.787 56.7988 516.002 58.2245 518.719C61.4163 524.806 61.3166 524.794 108.312 524.794C153.182 524.794 151.903 524.676 151.903 528.8C151.903 529.339 123.921 529.692 82.0498 529.679C14.9923 529.658 12.0538 529.582 8.62653 527.773C2.46846 524.524 1.65132 521.807 1.64794 504.564C1.64457 491.005 1.79567 489.507 3.40715 487.125C5.61291 483.866 9.50276 481.44 13.8847 480.59C15.7419 480.23 48.3151 479.864 86.2705 479.779L155.28 479.624V482.582ZM205.899 481.55C207.679 485.418 207.24 485.54 191.578 485.54C175.917 485.54 175.477 485.418 177.257 481.55C178.065 479.796 179.147 479.652 191.578 479.652C204.009 479.652 205.091 479.796 205.899 481.55ZM268.185 480.271C269.293 480.616 270.084 481.625 270.084 482.693C270.084 483.775 269.309 484.743 268.185 485.063C267.14 485.361 257.928 485.48 247.714 485.328L229.143 485.05L228.876 482.351L228.609 479.652L247.447 479.666C257.808 479.673 267.14 479.946 268.185 480.271ZM155.28 488.577C155.28 489.805 155.958 490.837 156.968 491.144C160.259 492.145 158.897 495.183 153.816 498.178C149.402 500.78 148.962 502.531 149.692 514.61L150.249 523.813L109.502 523.807C83.0062 523.804 67.6098 523.432 65.4808 522.745C63.6811 522.164 61.3065 520.641 60.2049 519.36C58.3233 517.173 58.2026 516.331 58.2026 505.43C58.2026 496.299 58.4955 493.342 59.5769 491.546C62.5255 486.653 63.0607 486.601 110.751 486.56L155.28 486.522V488.577ZM208.891 489.484C210.05 492.088 210.057 492.513 208.953 493.006C208.263 493.313 207.326 493.298 206.872 492.971C206.417 492.645 205.807 492.827 205.515 493.376C204.982 494.377 208.812 494.86 214.055 494.452C216.273 494.279 216.782 494.662 217.256 496.857C218.209 501.268 216.681 502.202 208.147 502.423L200.442 502.623L207.406 502.953C213.888 503.261 215.702 504.095 213.435 505.724C212.856 506.14 212.699 507.84 213.023 510.198L213.546 513.999H191.943H170.34L170.864 511.226C171.152 509.7 171.005 507.278 170.535 505.843C169.458 502.549 171.059 492.464 172.782 491.695C173.441 491.401 174.322 490.117 174.739 488.842L175.497 486.522H191.536H207.574L208.891 489.484ZM262.382 493.146C260.114 503.257 260.408 509.694 263.682 521.605L264.289 523.813H252.456C242.542 523.813 240.502 523.56 239.875 522.26C239.194 520.845 238.842 520.846 235.905 522.273C234.133 523.134 232.487 523.61 232.248 523.333C232.008 523.055 233.399 522.055 235.337 521.112C237.991 519.82 238.809 518.911 238.645 517.434C238.445 515.626 238.949 515.461 245.01 515.343C248.631 515.273 251.828 514.941 252.116 514.607C252.403 514.273 249.616 513.999 245.923 513.999C240.874 513.999 238.385 514.486 235.896 515.962C234.074 517.041 232 517.887 231.286 517.842C230.571 517.796 231.62 516.887 233.616 515.822C237.519 513.737 237.621 513.051 234.945 506.934C234.307 505.475 233.786 504.041 233.786 503.744C233.786 503.447 238.06 503.121 243.282 503.019L252.779 502.833L242.405 502.283C231.414 501.7 230.45 501.241 230.422 496.581C230.409 494.398 230.541 494.373 241.946 494.373C248.291 494.373 253.256 494.109 252.979 493.787C252.701 493.465 247.508 493.201 241.438 493.201C229.739 493.201 228.382 492.656 229.351 488.345C229.735 486.644 230.906 486.522 246.815 486.522H263.868L262.382 493.146ZM228.179 492.165C229.805 498.877 229.689 499.726 226.959 501.127C224.654 502.309 223.946 502.279 221.453 500.897C219.025 499.551 218.591 498.803 218.591 495.958C218.591 492.911 218.881 492.516 221.757 491.628C226.485 490.168 227.72 490.271 228.179 492.165ZM170.103 493.997C169.798 495.409 169.33 497.838 169.062 499.394C168.643 501.828 168.185 502.223 165.784 502.223C163.666 502.223 162.571 501.535 161.246 499.373C159.51 496.538 158.989 493.331 160.064 492.083C160.373 491.723 162.883 491.429 165.642 491.429C170.63 491.429 170.654 491.442 170.103 493.997ZM83.7221 493.568C82.9184 493.935 94.3845 494.266 109.204 494.304C124.022 494.341 135.885 494.07 135.567 493.7C134.813 492.823 85.6298 492.696 83.7221 493.568ZM91.3354 502.958C100.505 503.116 115.509 503.116 124.679 502.958C133.848 502.799 126.347 502.67 108.007 502.67C89.6683 502.67 82.1655 502.799 91.3354 502.958ZM154.336 513.575C154.457 518.419 156.97 529.83 159.011 534.81C159.831 536.811 161.474 539.579 162.662 540.958C163.85 542.339 164.631 543.69 164.399 543.959C163.581 544.911 159.232 538.969 157.557 534.612C154.914 527.736 153.635 521.099 153.202 512.037C152.941 506.559 153.05 504.706 153.521 506.639C153.914 508.258 154.281 511.379 154.336 513.575ZM218.156 511.007C219.171 514.726 226.796 527.307 230.819 531.901C233.061 534.46 236.164 537.088 237.717 537.741C239.268 538.393 240.539 539.269 240.539 539.687C240.539 540.821 236.329 538.769 232.7 535.866C230.942 534.46 227.832 530.725 225.789 527.565C222 521.705 216.059 510.797 216.059 509.7C216.059 508.254 217.68 509.264 218.156 511.007ZM90.5462 514.734C99.2823 514.894 113.337 514.893 121.78 514.733C130.223 514.573 123.075 514.443 105.897 514.444C88.7186 514.444 81.8109 514.574 90.5462 514.734ZM215.989 518.286C216.956 520.103 217.747 522.09 217.747 522.702C217.747 523.503 211.142 523.813 194.111 523.813C171.038 523.813 170.474 523.766 170.474 521.85C170.474 520.182 169.911 519.887 166.726 519.887C164.663 519.887 162.705 519.376 162.372 518.751C161.931 517.92 162.915 517.773 166.036 518.202C169.784 518.719 170.355 518.559 170.732 516.885C171.142 515.063 172.089 514.981 192.697 514.981H214.233L215.989 518.286ZM169.208 524.794C169.523 525.386 168.389 525.775 166.353 525.775C164.496 525.775 162.742 525.334 162.455 524.794C162.14 524.202 163.274 523.813 165.31 523.813C167.167 523.813 168.921 524.254 169.208 524.794ZM220.424 526.418C221.273 527.311 221.968 528.415 221.968 528.871C221.968 529.328 210.192 529.701 195.799 529.701C180.47 529.701 169.63 529.328 169.63 528.8C169.63 524.789 169.597 524.794 194.767 524.794C216.02 524.794 219.063 524.986 220.424 526.418ZM268.749 525.39C269.483 525.717 270.084 526.832 270.084 527.866C270.084 529.656 269.399 529.735 255.945 529.479C242.004 529.214 241.802 529.179 241.535 527.002L241.266 524.794H254.34C261.53 524.794 268.014 525.062 268.749 525.39Z" fill="white"/>

            </svg>