<svg width="303" height="65" viewBox="0 0 303 65" fill="none" xmlns="http://www.w3.org/2000/svg">
<path d="M29.3031 0H303V65H29.3031L0 33L29.3031 0Z" fill="url(#paint0_linear_37_452)"/>
<path d="M55.5859 30.0547C55.4349 29.5807 55.2318 29.1562 54.9766 28.7812C54.7266 28.401 54.4271 28.0781 54.0781 27.8125C53.7292 27.5417 53.3307 27.3359 52.8828 27.1953C52.4401 27.0547 51.9531 26.9844 51.4219 26.9844C50.5208 26.9844 49.7083 27.2161 48.9844 27.6797C48.2604 28.1432 47.6875 28.8229 47.2656 29.7187C46.849 30.6094 46.6406 31.7005 46.6406 32.9922C46.6406 34.2891 46.8516 35.3854 47.2734 36.2812C47.6953 37.1771 48.2734 37.8568 49.0078 38.3203C49.7422 38.7839 50.5781 39.0156 51.5156 39.0156C52.3854 39.0156 53.1432 38.8385 53.7891 38.4844C54.4401 38.1302 54.9427 37.6302 55.2969 36.9844C55.6563 36.3333 55.8359 35.5677 55.8359 34.6875L56.4609 34.8047H51.8828V32.8125H58.1719V34.6328C58.1719 35.9766 57.8854 37.1432 57.3125 38.1328C56.7448 39.1172 55.9583 39.8776 54.9531 40.4141C53.9531 40.9505 52.8073 41.2187 51.5156 41.2187C50.0677 41.2187 48.7969 40.8854 47.7031 40.2188C46.6146 39.5521 45.7656 38.6068 45.1563 37.3828C44.5469 36.1536 44.2422 34.6953 44.2422 33.0078C44.2422 31.7318 44.4193 30.5859 44.7734 29.5703C45.1276 28.5547 45.625 27.6927 46.2656 26.9844C46.9115 26.2708 47.6693 25.7266 48.5391 25.3516C49.4141 24.9714 50.3698 24.7812 51.4063 24.7812C52.2708 24.7812 53.0755 24.9089 53.8203 25.1641C54.5703 25.4193 55.237 25.7812 55.8203 26.25C56.4089 26.7187 56.8958 27.276 57.2813 27.9219C57.6667 28.5625 57.9271 29.2734 58.0625 30.0547H55.5859ZM75.1348 33C75.1348 34.7083 74.8223 36.1771 74.1973 37.4062C73.5723 38.6302 72.7155 39.5729 71.627 40.2344C70.5436 40.8906 69.3118 41.2187 67.9316 41.2187C66.5462 41.2187 65.3092 40.8906 64.2207 40.2344C63.1374 39.5729 62.2832 38.6276 61.6582 37.3984C61.0332 36.1693 60.7207 34.7031 60.7207 33C60.7207 31.2917 61.0332 29.8255 61.6582 28.6016C62.2832 27.3724 63.1374 26.4297 64.2207 25.7734C65.3092 25.112 66.5462 24.7812 67.9316 24.7812C69.3118 24.7812 70.5436 25.112 71.627 25.7734C72.7155 26.4297 73.5723 27.3724 74.1973 28.6016C74.8223 29.8255 75.1348 31.2917 75.1348 33ZM72.7441 33C72.7441 31.6979 72.5332 30.6016 72.1113 29.7109C71.6947 28.8151 71.1217 28.138 70.3926 27.6797C69.6686 27.2161 68.8483 26.9844 67.9316 26.9844C67.0098 26.9844 66.1868 27.2161 65.4629 27.6797C64.7389 28.138 64.166 28.8151 63.7441 29.7109C63.3275 30.6016 63.1191 31.6979 63.1191 33C63.1191 34.3021 63.3275 35.401 63.7441 36.2969C64.166 37.1875 64.7389 37.8646 65.4629 38.3281C66.1868 38.7865 67.0098 39.0156 67.9316 39.0156C68.8483 39.0156 69.6686 38.7865 70.3926 38.3281C71.1217 37.8646 71.6947 37.1875 72.1113 36.2969C72.5332 35.401 72.7441 34.3021 72.7441 33ZM80.5586 25V41H78.1445V25H80.5586ZM96.9883 25V41H94.7695L86.6367 29.2656H86.4883V41H84.0742V25H86.3086L94.4492 36.75H94.5977V25H96.9883ZM111.338 30.0547C111.187 29.5807 110.984 29.1562 110.729 28.7812C110.479 28.401 110.179 28.0781 109.83 27.8125C109.481 27.5417 109.083 27.3359 108.635 27.1953C108.192 27.0547 107.705 26.9844 107.174 26.9844C106.273 26.9844 105.46 27.2161 104.736 27.6797C104.012 28.1432 103.439 28.8229 103.018 29.7187C102.601 30.6094 102.393 31.7005 102.393 32.9922C102.393 34.2891 102.604 35.3854 103.025 36.2812C103.447 37.1771 104.025 37.8568 104.76 38.3203C105.494 38.7839 106.33 39.0156 107.268 39.0156C108.137 39.0156 108.895 38.8385 109.541 38.4844C110.192 38.1302 110.695 37.6302 111.049 36.9844C111.408 36.3333 111.588 35.5677 111.588 34.6875L112.213 34.8047H107.635V32.8125H113.924V34.6328C113.924 35.9766 113.637 37.1432 113.064 38.1328C112.497 39.1172 111.71 39.8776 110.705 40.4141C109.705 40.9505 108.559 41.2187 107.268 41.2187C105.82 41.2187 104.549 40.8854 103.455 40.2188C102.367 39.5521 101.518 38.6068 100.908 37.3828C100.299 36.1536 99.9941 34.6953 99.9941 33.0078C99.9941 31.7318 100.171 30.5859 100.525 29.5703C100.88 28.5547 101.377 27.6927 102.018 26.9844C102.663 26.2708 103.421 25.7266 104.291 25.3516C105.166 24.9714 106.122 24.7812 107.158 24.7812C108.023 24.7812 108.827 24.9089 109.572 25.1641C110.322 25.4193 110.989 25.7812 111.572 26.25C112.161 26.7187 112.648 27.276 113.033 27.9219C113.419 28.5625 113.679 29.2734 113.814 30.0547H111.338ZM122.811 41V25H125.225V38.9219H132.475V41H122.811ZM137.643 25V41H135.229V25H137.643ZM142.557 25L147.01 38.0312H147.189L151.643 25H154.252L148.494 41H145.705L139.947 25H142.557ZM156.563 41V25H166.594V27.0781H158.977V31.9531H166.07V34.0234H158.977V38.9219H166.688V41H156.563ZM174.852 27.0781V25H187.234V27.0781H182.242V41H179.836V27.0781H174.852ZM189.971 41V25H192.385V31.9531H200.361V25H202.783V41H200.361V34.0234H192.385V41H189.971ZM208.713 25V41H206.299V25H208.713ZM220.955 29.2031C220.872 28.4635 220.528 27.8906 219.924 27.4844C219.32 27.0729 218.559 26.8672 217.643 26.8672C216.986 26.8672 216.419 26.9714 215.939 27.1797C215.46 27.3828 215.088 27.6641 214.822 28.0234C214.562 28.3776 214.432 28.7812 214.432 29.2344C214.432 29.6146 214.52 29.9427 214.697 30.2187C214.88 30.4948 215.117 30.7266 215.408 30.9141C215.705 31.0964 216.023 31.25 216.361 31.375C216.7 31.4948 217.025 31.5937 217.338 31.6719L218.9 32.0781C219.411 32.2031 219.934 32.3724 220.471 32.5859C221.007 32.7995 221.505 33.0807 221.963 33.4297C222.421 33.7786 222.791 34.2109 223.072 34.7266C223.359 35.2422 223.502 35.8594 223.502 36.5781C223.502 37.4844 223.268 38.2891 222.799 38.9922C222.335 39.6953 221.661 40.25 220.775 40.6562C219.895 41.0625 218.83 41.2656 217.58 41.2656C216.382 41.2656 215.346 41.0755 214.471 40.6953C213.596 40.3151 212.911 39.776 212.416 39.0781C211.921 38.375 211.648 37.5417 211.596 36.5781H214.018C214.064 37.1562 214.252 37.638 214.58 38.0234C214.913 38.4036 215.338 38.6875 215.854 38.875C216.374 39.0573 216.945 39.1484 217.564 39.1484C218.247 39.1484 218.854 39.0417 219.385 38.8281C219.921 38.6094 220.343 38.3073 220.65 37.9219C220.958 37.5312 221.111 37.0755 221.111 36.5547C221.111 36.0807 220.976 35.6927 220.705 35.3906C220.439 35.0885 220.077 34.8385 219.619 34.6406C219.166 34.4427 218.653 34.2682 218.08 34.1172L216.189 33.6016C214.908 33.2526 213.893 32.7396 213.143 32.0625C212.398 31.3854 212.025 30.4896 212.025 29.375C212.025 28.4531 212.275 27.6484 212.775 26.9609C213.275 26.2734 213.952 25.7396 214.807 25.3594C215.661 24.974 216.624 24.7812 217.697 24.7812C218.781 24.7812 219.736 24.9714 220.564 25.3516C221.398 25.7318 222.054 26.2552 222.533 26.9219C223.012 27.5833 223.262 28.3437 223.283 29.2031H220.955ZM232.209 41V25H242.131V27.0781H234.623V31.9531H241.42V34.0234H234.623V41H232.209ZM244.453 41H241.891L247.648 25H250.438L256.195 41H253.633L249.109 27.9062H248.984L244.453 41ZM244.883 34.7344H253.195V36.7656H244.883V34.7344ZM258.506 41V25H260.92V38.9219H268.17V41H258.506ZM270.924 41V25H273.338V38.9219H280.588V41H270.924Z" fill="black"/>
<defs>
<linearGradient id="paint0_linear_37_452" x1="0" y1="32.5" x2="303" y2="32.5" gradientUnits="userSpaceOnUse">
<stop stop-color="white"/>
<stop offset="1" stop-color="#FFA9D8"/>
</linearGradient>
</defs>
</svg>
