<svg width="61" height="65" viewBox="0 0 61 65" fill="none" xmlns="http://www.w3.org/2000/svg">
<path fill-rule="evenodd" clip-rule="evenodd" d="M16.6712 0.169934C16.167 0.399945 14.6938 1.97482 13.7611 3.28093C12.8105 4.61232 11.6634 6.8677 11.1416 8.43152C10.4362 10.5458 10.2308 11.7818 10.1563 14.3595C10.0978 16.3827 10.1259 16.9301 10.3579 18.2865C10.846 21.1399 11.9315 23.8648 13.5294 26.2472C14.4811 27.666 15.9523 29.3437 16.5041 29.6393C17.9914 30.4358 19.8024 28.9652 19.2801 27.3849C19.1962 27.1313 18.7583 26.5128 18.307 26.0106C16.2005 23.6666 14.7786 20.7947 14.2429 17.802C13.9589 16.2148 13.9833 13.4647 14.2956 11.8814C14.8837 8.89892 16.0907 6.44148 18.0922 4.15103C19.2516 2.82446 19.435 2.48504 19.3647 1.79602C19.2335 0.510248 17.8096 -0.349433 16.6712 0.169934ZM42.5735 0.285575C41.9288 0.615723 41.5508 1.22239 41.5508 1.92729C41.5508 2.62965 41.6936 2.89499 42.6338 3.93906C46.4959 8.2282 47.8128 13.9079 46.2575 19.5696C45.9213 20.7938 44.6787 23.3366 43.8977 24.3986C43.5637 24.8529 42.9636 25.5963 42.5644 26.0506C41.6876 27.0483 41.5508 27.2965 41.5508 27.8889C41.5508 29.1963 42.757 30.1305 44.0323 29.8109C44.4558 29.7046 45.3268 28.9049 46.2589 27.7662C50.7245 22.3111 52.0217 14.8327 49.6642 8.13264C48.9342 6.05771 47.6827 3.86117 46.1891 2.0329C44.5295 0.00168274 43.8084 -0.346765 42.5735 0.285575ZM20.8628 6.0835C20.6484 6.21414 20.2139 6.62841 19.897 7.00444C17.8858 9.39122 16.9541 11.9006 16.9541 14.9313C16.9541 16.9938 17.3358 18.5999 18.2697 20.4678C19.1275 22.1834 20.5309 23.8062 21.3464 24.0255C22.3179 24.2867 23.3099 23.7708 23.6758 22.8142C23.9929 21.9851 23.8532 21.5166 22.9656 20.433C22.055 19.3213 21.4174 18.1483 21.1148 17.0281C20.8456 16.0318 20.8133 14.0834 21.0493 13.0887C21.3063 12.0047 22.117 10.4335 22.8505 9.59746C23.5456 8.80513 23.8634 8.21447 23.8587 7.7237C23.8536 7.19836 23.397 6.40171 22.9388 6.11909C22.371 5.76861 21.4071 5.75209 20.8628 6.0835ZM38.0262 6.0938C37.5417 6.38887 37.2569 6.79273 37.1472 7.34056C37.0009 8.07062 37.199 8.59647 37.9352 9.43328C38.7206 10.3259 39.5424 11.8802 39.8315 13.0201C40.0751 13.9801 40.0756 15.8393 39.8325 16.8686C39.7294 17.305 39.4679 18.025 39.2514 18.4685C38.8909 19.2067 38.6341 19.5755 37.5517 20.9088C37.0298 21.5517 36.952 22.5055 37.3717 23.1161C37.8462 23.8066 38.2867 24.0663 38.9832 24.0663C39.8385 24.0663 40.3211 23.7458 41.3042 22.5251C42.2775 21.3168 43.0488 19.834 43.5382 18.2308C43.8565 17.1886 43.8863 16.9132 43.8881 14.9948C43.8905 12.4936 43.6904 11.58 42.7056 9.59403C42.0285 8.22871 40.6733 6.42941 40.0496 6.06762C39.5289 5.76556 38.5444 5.77826 38.0262 6.0938ZM29.4519 10.9675C27.5633 11.5005 26.3703 13.0273 26.3606 14.9244C26.3522 16.5477 27.3092 18.0361 28.8023 18.7219C29.6836 19.1268 31.3231 19.1073 32.1971 18.6816C33.0991 18.2422 33.9647 17.313 34.2983 16.426C34.6634 15.4551 34.6175 14.0603 34.1917 13.1912C33.3407 11.4545 31.2322 10.4652 29.4519 10.9675ZM3.30879 33.4722C1.94175 33.9051 0.944787 34.7675 0.356459 36.0262L0 36.7887V49.1788V61.5689L0.338515 62.2901C0.812563 63.2998 1.59458 64.0974 2.59053 64.587L3.43071 65H30.4764H57.5221L58.252 64.6584C59.6696 63.9949 60.6653 62.6506 60.9115 61.0677C60.9819 60.6147 61.0155 55.4883 60.9931 48.6069C60.958 37.8351 60.9375 36.8708 60.7325 36.3439C60.4151 35.528 59.651 34.5683 58.9377 34.0894C57.6646 33.2351 59.769 33.2932 30.4241 33.3026C9.30509 33.3093 3.71285 33.3443 3.30879 33.4722ZM7.31345 39.2592C6.77768 39.4218 6.42656 39.6886 6.1331 40.1563L5.85402 40.601V49.1881V57.7752L6.16632 58.2303C6.80682 59.1637 6.75375 59.1544 11.476 59.1544C15.5606 59.1544 15.7098 59.1458 16.0574 58.8886C17.2653 57.9948 17.3079 56.3348 16.1425 55.5713C15.8382 55.3719 15.4015 55.3338 12.7959 55.2785L9.79911 55.215L9.73548 47.7562L9.67185 40.2973L9.23204 39.8443C8.99024 39.5952 8.58937 39.335 8.34121 39.2662C7.82962 39.1243 7.76001 39.1238 7.31345 39.2592ZM20.2982 39.4183C19.8813 39.6318 19.6476 39.8658 19.4392 40.2785L19.1528 40.8455V49.1788V57.5121L19.4392 58.0762C19.9854 59.1521 21.3351 59.4944 22.2586 58.7911C23.1418 58.1184 23.0979 58.6237 23.0979 49.1404V40.5751L22.8116 40.155C22.1623 39.2024 21.2452 38.9337 20.2982 39.4183ZM27.4852 39.2704C27.2735 39.3342 26.9075 39.5849 26.6719 39.8276C25.856 40.668 25.8218 40.4937 28.6207 49.7541C29.9931 54.2952 31.2201 58.1537 31.3474 58.3284C32.095 59.3547 33.9589 59.3096 34.5734 58.2505C34.6904 58.0487 35.9136 54.1516 37.2916 49.5903C39.2733 43.03 39.7801 41.2072 39.7163 40.8679C39.5869 40.1789 39.1256 39.6163 38.4665 39.3435C37.94 39.1257 37.8063 39.1155 37.3304 39.258C36.223 39.5892 36.1455 39.7471 34.6385 44.7435C33.8879 47.2316 33.1994 49.519 33.1084 49.8266L32.9431 50.386L32.5476 49.1153C32.3299 48.4163 31.6537 46.1861 31.0447 44.1592C30.4357 42.1323 29.8445 40.3127 29.731 40.1157C29.3327 39.4243 28.2848 39.03 27.4852 39.2704ZM43.6912 39.2615C43.2145 39.4092 42.827 39.7001 42.5514 40.1175C42.3282 40.4555 42.316 40.9248 42.3152 49.2102L42.3144 57.9464L42.7722 58.4526C43.0397 58.7481 43.4236 59.0123 43.6949 59.0877C43.9681 59.1634 45.9969 59.2168 48.6186 59.2172C52.9926 59.218 53.0883 59.2125 53.6381 58.932C54.347 58.5702 54.6695 58.1285 54.7508 57.4079C54.8304 56.7038 54.5344 56.024 53.9749 55.6255C53.5908 55.352 53.4483 55.3399 49.8864 55.2785L46.1958 55.215V52.6734V50.1319L49.3774 50.0683C52.974 49.9965 53.0318 49.9816 53.5071 49.001C53.8348 48.3251 53.8348 47.9993 53.5071 47.3233C53.0318 46.3428 52.974 46.3278 49.3774 46.256L46.1958 46.1925V44.6675V43.1426L50.0137 43.0791C53.7074 43.0176 53.8445 43.0064 54.2294 42.7321C55.3481 41.9354 55.2891 40.3429 54.1087 39.469C53.7605 39.2112 53.6023 39.2024 48.891 39.1794C46.2187 39.1665 43.8788 39.2033 43.6912 39.2615Z" fill="white"/>
</svg>
