<svg width="353" height="65" viewBox="0 0 353 65" fill="none" xmlns="http://www.w3.org/2000/svg">
<path d="M34.1386 0H353V65H34.1386L0 33L34.1386 0Z" fill="url(#paint0_linear_37_448)"/>
<path d="M59.8203 41.2187C58.8411 41.2187 57.9609 41.0312 57.1797 40.6562C56.4036 40.276 55.7839 39.7552 55.3203 39.0938C54.8568 38.4323 54.6094 37.6771 54.5781 36.8281H56.9219C56.9792 37.5156 57.2839 38.0807 57.8359 38.5234C58.388 38.9661 59.0495 39.1875 59.8203 39.1875C60.4349 39.1875 60.9792 39.0469 61.4531 38.7656C61.9323 38.4792 62.3073 38.0859 62.5781 37.5859C62.8542 37.0859 62.9922 36.5156 62.9922 35.875C62.9922 35.224 62.8516 34.6432 62.5703 34.1328C62.2891 33.6224 61.901 33.2214 61.4063 32.9297C60.9167 32.638 60.3542 32.4896 59.7188 32.4844C59.2344 32.4844 58.7474 32.5677 58.2578 32.7344C57.7682 32.901 57.3724 33.1198 57.0703 33.3906L54.8594 33.0625L55.7578 25H64.5547V27.0703H57.7656L57.2578 31.5469H57.3516C57.6641 31.2448 58.0781 30.9922 58.5938 30.7891C59.1146 30.5859 59.6719 30.4844 60.2656 30.4844C61.2396 30.4844 62.1068 30.7161 62.8672 31.1797C63.6328 31.6432 64.2344 32.276 64.6719 33.0781C65.1146 33.875 65.3333 34.7917 65.3281 35.8281C65.3333 36.8646 65.099 37.7891 64.625 38.6016C64.1563 39.4141 63.5052 40.0547 62.6719 40.5234C61.8438 40.987 60.8932 41.2187 59.8203 41.2187ZM77.3555 41L72.918 25H75.457L78.5742 37.3906H78.7227L81.9648 25H84.4805L87.7227 37.3984H87.8711L90.9805 25H93.5273L89.082 41H86.6523L83.2852 29.0156H83.1602L79.793 41H77.3555ZM95.7285 41V25H105.76V27.0781H98.1426V31.9531H105.236V34.0234H98.1426V38.9219H105.854V41H95.7285ZM108.984 41V25H119.016V27.0781H111.398V31.9531H118.492V34.0234H111.398V38.9219H119.109V41H108.984ZM122.24 41V25H124.654V32.6406H124.85L131.561 25H134.6L128.146 32.2031L134.623 41H131.717L126.545 33.8516L124.654 36.0234V41H122.24ZM142.672 41V25H148.375C149.62 25 150.651 25.2266 151.469 25.6797C152.286 26.1328 152.898 26.7526 153.305 27.5391C153.711 28.3203 153.914 29.2005 153.914 30.1797C153.914 31.1641 153.708 32.0495 153.297 32.8359C152.891 33.6172 152.276 34.237 151.453 34.6953C150.635 35.1484 149.607 35.375 148.367 35.375H144.445V33.3281H148.148C148.935 33.3281 149.573 33.1927 150.063 32.9219C150.552 32.6458 150.911 32.2708 151.141 31.7969C151.37 31.3229 151.484 30.7839 151.484 30.1797C151.484 29.5755 151.37 29.0391 151.141 28.5703C150.911 28.1016 150.549 27.7344 150.055 27.4688C149.565 27.2031 148.919 27.0703 148.117 27.0703H145.086V41H142.672ZM170.643 33C170.643 34.7083 170.33 36.1771 169.705 37.4062C169.08 38.6302 168.223 39.5729 167.135 40.2344C166.051 40.8906 164.82 41.2187 163.439 41.2187C162.054 41.2187 160.817 40.8906 159.729 40.2344C158.645 39.5729 157.791 38.6276 157.166 37.3984C156.541 36.1693 156.229 34.7031 156.229 33C156.229 31.2917 156.541 29.8255 157.166 28.6016C157.791 27.3724 158.645 26.4297 159.729 25.7734C160.817 25.112 162.054 24.7812 163.439 24.7812C164.82 24.7812 166.051 25.112 167.135 25.7734C168.223 26.4297 169.08 27.3724 169.705 28.6016C170.33 29.8255 170.643 31.2917 170.643 33ZM168.252 33C168.252 31.6979 168.041 30.6016 167.619 29.7109C167.202 28.8151 166.63 28.138 165.9 27.6797C165.176 27.2161 164.356 26.9844 163.439 26.9844C162.518 26.9844 161.695 27.2161 160.971 27.6797C160.247 28.138 159.674 28.8151 159.252 29.7109C158.835 30.6016 158.627 31.6979 158.627 33C158.627 34.3021 158.835 35.401 159.252 36.2969C159.674 37.1875 160.247 37.8646 160.971 38.3281C161.695 38.7865 162.518 39.0156 163.439 39.0156C164.356 39.0156 165.176 38.7865 165.9 38.3281C166.63 37.8646 167.202 37.1875 167.619 36.2969C168.041 35.401 168.252 34.3021 168.252 33ZM178.832 41H173.652V25H178.996C180.564 25 181.91 25.3203 183.035 25.9609C184.16 26.5964 185.022 27.5104 185.621 28.7031C186.225 29.8906 186.527 31.3151 186.527 32.9766C186.527 34.6432 186.223 36.0755 185.613 37.2734C185.009 38.4714 184.134 39.3932 182.988 40.0391C181.842 40.6797 180.457 41 178.832 41ZM176.066 38.8906H178.699C179.918 38.8906 180.931 38.6615 181.738 38.2031C182.546 37.7396 183.15 37.0703 183.551 36.1953C183.952 35.3151 184.152 34.2422 184.152 32.9766C184.152 31.7214 183.952 30.6562 183.551 29.7812C183.155 28.9062 182.564 28.2422 181.777 27.7891C180.991 27.3359 180.014 27.1094 178.848 27.1094H176.066V38.8906ZM202.818 30.2031H200.381C200.287 29.6823 200.113 29.224 199.857 28.8281C199.602 28.4323 199.29 28.0964 198.92 27.8203C198.55 27.5443 198.136 27.3359 197.678 27.1953C197.225 27.0547 196.743 26.9844 196.232 26.9844C195.311 26.9844 194.485 27.2161 193.756 27.6797C193.032 28.1432 192.459 28.8229 192.037 29.7187C191.62 30.6146 191.412 31.7083 191.412 33C191.412 34.3021 191.62 35.401 192.037 36.2969C192.459 37.1927 193.035 37.8698 193.764 38.3281C194.493 38.7865 195.313 39.0156 196.225 39.0156C196.73 39.0156 197.209 38.9479 197.662 38.8125C198.12 38.6719 198.535 38.4661 198.904 38.1953C199.274 37.9245 199.587 37.5937 199.842 37.2031C200.102 36.8073 200.282 36.3542 200.381 35.8438L202.818 35.8516C202.688 36.638 202.436 37.362 202.061 38.0234C201.691 38.6797 201.214 39.2474 200.631 39.7266C200.053 40.2005 199.391 40.5677 198.646 40.8281C197.902 41.0885 197.089 41.2187 196.209 41.2187C194.824 41.2187 193.589 40.8906 192.506 40.2344C191.423 39.5729 190.568 38.6276 189.943 37.3984C189.324 36.1693 189.014 34.7031 189.014 33C189.014 31.2917 189.326 29.8255 189.951 28.6016C190.576 27.3724 191.43 26.4297 192.514 25.7734C193.597 25.112 194.829 24.7812 196.209 24.7812C197.058 24.7812 197.85 24.9036 198.584 25.1484C199.324 25.388 199.988 25.7422 200.576 26.2109C201.165 26.6745 201.652 27.2422 202.037 27.9141C202.423 28.5807 202.683 29.3437 202.818 30.2031ZM206.951 41H204.389L210.146 25H212.936L218.693 41H216.131L211.607 27.9062H211.482L206.951 41ZM207.381 34.7344H215.693V36.7656H207.381V34.7344ZM229.602 29.2031C229.518 28.4635 229.174 27.8906 228.57 27.4844C227.966 27.0729 227.206 26.8672 226.289 26.8672C225.633 26.8672 225.065 26.9714 224.586 27.1797C224.107 27.3828 223.734 27.6641 223.469 28.0234C223.208 28.3776 223.078 28.7812 223.078 29.2344C223.078 29.6146 223.167 29.9427 223.344 30.2187C223.526 30.4948 223.763 30.7266 224.055 30.9141C224.352 31.0964 224.669 31.25 225.008 31.375C225.346 31.4948 225.672 31.5937 225.984 31.6719L227.547 32.0781C228.057 32.2031 228.581 32.3724 229.117 32.5859C229.654 32.7995 230.151 33.0807 230.609 33.4297C231.068 33.7786 231.438 34.2109 231.719 34.7266C232.005 35.2422 232.148 35.8594 232.148 36.5781C232.148 37.4844 231.914 38.2891 231.445 38.9922C230.982 39.6953 230.307 40.25 229.422 40.6562C228.542 41.0625 227.477 41.2656 226.227 41.2656C225.029 41.2656 223.992 41.0755 223.117 40.6953C222.242 40.3151 221.557 39.776 221.063 39.0781C220.568 38.375 220.294 37.5417 220.242 36.5781H222.664C222.711 37.1562 222.898 37.638 223.227 38.0234C223.56 38.4036 223.984 38.6875 224.5 38.875C225.021 39.0573 225.591 39.1484 226.211 39.1484C226.893 39.1484 227.5 39.0417 228.031 38.8281C228.568 38.6094 228.99 38.3073 229.297 37.9219C229.604 37.5312 229.758 37.0755 229.758 36.5547C229.758 36.0807 229.622 35.6927 229.352 35.3906C229.086 35.0885 228.724 34.8385 228.266 34.6406C227.813 34.4427 227.299 34.2682 226.727 34.1172L224.836 33.6016C223.555 33.2526 222.539 32.7396 221.789 32.0625C221.044 31.3854 220.672 30.4896 220.672 29.375C220.672 28.4531 220.922 27.6484 221.422 26.9609C221.922 26.2734 222.599 25.7396 223.453 25.3594C224.307 24.974 225.271 24.7812 226.344 24.7812C227.427 24.7812 228.383 24.9714 229.211 25.3516C230.044 25.7318 230.701 26.2552 231.18 26.9219C231.659 27.5833 231.909 28.3437 231.93 29.2031H229.602ZM234.244 27.0781V25H246.627V27.0781H241.635V41H239.229V27.0781H234.244ZM263.912 29.2031C263.829 28.4635 263.485 27.8906 262.881 27.4844C262.277 27.0729 261.516 26.8672 260.6 26.8672C259.943 26.8672 259.376 26.9714 258.896 27.1797C258.417 27.3828 258.045 27.6641 257.779 28.0234C257.519 28.3776 257.389 28.7812 257.389 29.2344C257.389 29.6146 257.477 29.9427 257.654 30.2187C257.837 30.4948 258.074 30.7266 258.365 30.9141C258.662 31.0964 258.98 31.25 259.318 31.375C259.657 31.4948 259.982 31.5937 260.295 31.6719L261.857 32.0781C262.368 32.2031 262.891 32.3724 263.428 32.5859C263.964 32.7995 264.462 33.0807 264.92 33.4297C265.378 33.7786 265.748 34.2109 266.029 34.7266C266.316 35.2422 266.459 35.8594 266.459 36.5781C266.459 37.4844 266.225 38.2891 265.756 38.9922C265.292 39.6953 264.618 40.25 263.732 40.6562C262.852 41.0625 261.787 41.2656 260.537 41.2656C259.339 41.2656 258.303 41.0755 257.428 40.6953C256.553 40.3151 255.868 39.776 255.373 39.0781C254.878 38.375 254.605 37.5417 254.553 36.5781H256.975C257.021 37.1562 257.209 37.638 257.537 38.0234C257.87 38.4036 258.295 38.6875 258.811 38.875C259.331 39.0573 259.902 39.1484 260.521 39.1484C261.204 39.1484 261.811 39.0417 262.342 38.8281C262.878 38.6094 263.3 38.3073 263.607 37.9219C263.915 37.5312 264.068 37.0755 264.068 36.5547C264.068 36.0807 263.933 35.6927 263.662 35.3906C263.396 35.0885 263.035 34.8385 262.576 34.6406C262.123 34.4427 261.61 34.2682 261.037 34.1172L259.146 33.6016C257.865 33.2526 256.85 32.7396 256.1 32.0625C255.355 31.3854 254.982 30.4896 254.982 29.375C254.982 28.4531 255.232 27.6484 255.732 26.9609C256.232 26.2734 256.91 25.7396 257.764 25.3594C258.618 24.974 259.581 24.7812 260.654 24.7812C261.738 24.7812 262.693 24.9714 263.521 25.3516C264.355 25.7318 265.011 26.2552 265.49 26.9219C265.969 27.5833 266.219 28.3437 266.24 29.2031H263.912ZM269.344 41V25H279.375V27.0781H271.758V31.9531H278.852V34.0234H271.758V38.9219H279.469V41H269.344ZM282.6 41V25H288.303C289.542 25 290.571 25.2135 291.389 25.6406C292.212 26.0677 292.826 26.6589 293.232 27.4141C293.639 28.1641 293.842 29.0312 293.842 30.0156C293.842 30.9948 293.636 31.8568 293.225 32.6016C292.818 33.3411 292.204 33.9167 291.381 34.3281C290.563 34.7396 289.535 34.9453 288.295 34.9453H283.975V32.8672H288.076C288.857 32.8672 289.493 32.7552 289.982 32.5312C290.477 32.3073 290.839 31.9818 291.068 31.5547C291.298 31.1276 291.412 30.6146 291.412 30.0156C291.412 29.4115 291.295 28.888 291.061 28.4453C290.831 28.0026 290.469 27.6641 289.975 27.4297C289.485 27.1901 288.842 27.0703 288.045 27.0703H285.014V41H282.6ZM290.498 33.7812L294.451 41H291.701L287.826 33.7812H290.498ZM299.193 25V41H296.779V25H299.193ZM302.709 41V25H312.74V27.0781H305.123V31.9531H312.217V34.0234H305.123V38.9219H312.834V41H302.709ZM324.691 29.2031C324.608 28.4635 324.264 27.8906 323.66 27.4844C323.056 27.0729 322.296 26.8672 321.379 26.8672C320.723 26.8672 320.155 26.9714 319.676 27.1797C319.197 27.3828 318.824 27.6641 318.559 28.0234C318.298 28.3776 318.168 28.7812 318.168 29.2344C318.168 29.6146 318.257 29.9427 318.434 30.2187C318.616 30.4948 318.853 30.7266 319.145 30.9141C319.441 31.0964 319.759 31.25 320.098 31.375C320.436 31.4948 320.762 31.5937 321.074 31.6719L322.637 32.0781C323.147 32.2031 323.671 32.3724 324.207 32.5859C324.743 32.7995 325.241 33.0807 325.699 33.4297C326.158 33.7786 326.527 34.2109 326.809 34.7266C327.095 35.2422 327.238 35.8594 327.238 36.5781C327.238 37.4844 327.004 38.2891 326.535 38.9922C326.072 39.6953 325.397 40.25 324.512 40.6562C323.632 41.0625 322.566 41.2656 321.316 41.2656C320.118 41.2656 319.082 41.0755 318.207 40.6953C317.332 40.3151 316.647 39.776 316.152 39.0781C315.658 38.375 315.384 37.5417 315.332 36.5781H317.754C317.801 37.1562 317.988 37.638 318.316 38.0234C318.65 38.4036 319.074 38.6875 319.59 38.875C320.111 39.0573 320.681 39.1484 321.301 39.1484C321.983 39.1484 322.59 39.0417 323.121 38.8281C323.658 38.6094 324.079 38.3073 324.387 37.9219C324.694 37.5312 324.848 37.0755 324.848 36.5547C324.848 36.0807 324.712 35.6927 324.441 35.3906C324.176 35.0885 323.814 34.8385 323.355 34.6406C322.902 34.4427 322.389 34.2682 321.816 34.1172L319.926 33.6016C318.645 33.2526 317.629 32.7396 316.879 32.0625C316.134 31.3854 315.762 30.4896 315.762 29.375C315.762 28.4531 316.012 27.6484 316.512 26.9609C317.012 26.2734 317.689 25.7396 318.543 25.3594C319.397 24.974 320.361 24.7812 321.434 24.7812C322.517 24.7812 323.473 24.9714 324.301 25.3516C325.134 25.7318 325.79 26.2552 326.27 26.9219C326.749 27.5833 326.999 28.3437 327.02 29.2031H324.691Z" fill="black"/>
<defs>
<linearGradient id="paint0_linear_37_448" x1="0" y1="32.5" x2="353" y2="32.5" gradientUnits="userSpaceOnUse">
<stop stop-color="white"/>
<stop offset="1" stop-color="#FF93CD"/>
</linearGradient>
</defs>
</svg>
