<svg width="68" height="65" viewBox="0 0 68 65" fill="none" xmlns="http://www.w3.org/2000/svg">
<path fill-rule="evenodd" clip-rule="evenodd" d="M1.62467 0.403058C1.21397 0.63877 0.743654 1.11977 0.490595 1.56302L0.0583521 2.32012L0.0107214 24.9661C-0.0153622 37.4212 0.00780471 47.9745 0.0622401 48.418C0.171111 49.305 0.853173 50.3587 1.61349 50.8143C2.30252 51.2274 65.7011 51.2247 66.3903 50.8115C67.0202 50.4338 67.6544 49.5171 67.8626 48.6834C67.9833 48.2001 68.0219 41.008 67.9885 25.1539L67.9406 2.3203L67.5057 1.55851C67.2438 1.09967 66.7887 0.638394 66.361 0.398362L65.6512 0L33.9888 0.000187715L2.32649 0.00037543L1.62467 0.403058ZM34.5569 18.5829C38.8084 21.7792 42.3906 24.4941 42.5175 24.6162C42.887 24.9717 42.8071 26.1659 42.3835 26.6189C41.8493 27.1902 27.243 38.1387 26.6952 38.3784C26.3051 38.5491 26.1578 38.5198 25.7847 38.1967C25.5399 37.9849 25.2904 37.6077 25.2303 37.3589C25.0439 36.5856 25.0691 14.3589 25.2572 13.7853C25.4717 13.1315 25.8657 12.7851 26.4036 12.7776C26.69 12.7735 29.3297 14.653 34.5569 18.5829ZM27.6811 25.6095V34.3523L33.388 30.055C36.527 27.6915 39.112 25.6884 39.1327 25.6035C39.1619 25.4846 33.4681 21.1344 28.1517 17.2139L27.6811 16.8668V25.6095ZM11.5611 62.1146C10.4309 62.4412 10.2255 64.2287 11.2557 64.7728C11.8289 65.0757 56.17 65.0757 56.7432 64.7728C57.2672 64.4961 57.5546 63.7013 57.353 63.0868C56.9986 62.0055 58.5693 62.0761 34.258 62.0474C21.9529 62.0327 11.7393 62.063 11.5611 62.1146Z" fill="white"/>
</svg>
