<svg width="277" height="65" viewBox="0 0 277 65" fill="none" xmlns="http://www.w3.org/2000/svg">
<path d="M26.7886 0H277V65H26.7886L0 33L26.7886 0Z" fill="url(#paint0_linear_276_73)"/>
<path d="M45.7578 41V25H48.1719V38.9219H55.4219V41H45.7578ZM60.5898 25V41H58.1758V25H60.5898ZM72.832 29.2031C72.7487 28.4635 72.4049 27.8906 71.8008 27.4844C71.1966 27.0729 70.4362 26.8672 69.5195 26.8672C68.8633 26.8672 68.2956 26.9714 67.8164 27.1797C67.3372 27.3828 66.9648 27.6641 66.6992 28.0234C66.4388 28.3776 66.3086 28.7812 66.3086 29.2344C66.3086 29.6146 66.3971 29.9427 66.5742 30.2187C66.7565 30.4948 66.9935 30.7266 67.2852 30.9141C67.582 31.0964 67.8997 31.25 68.2383 31.375C68.5768 31.4948 68.9023 31.5937 69.2148 31.6719L70.7773 32.0781C71.2878 32.2031 71.8112 32.3724 72.3477 32.5859C72.8841 32.7995 73.3815 33.0807 73.8398 33.4297C74.2982 33.7786 74.668 34.2109 74.9492 34.7266C75.2357 35.2422 75.3789 35.8594 75.3789 36.5781C75.3789 37.4844 75.1445 38.2891 74.6758 38.9922C74.2122 39.6953 73.5378 40.25 72.6523 40.6562C71.7721 41.0625 70.707 41.2656 69.457 41.2656C68.2591 41.2656 67.2227 41.0755 66.3477 40.6953C65.4727 40.3151 64.7878 39.776 64.293 39.0781C63.7982 38.375 63.5247 37.5417 63.4727 36.5781H65.8945C65.9414 37.1562 66.1289 37.638 66.457 38.0234C66.7904 38.4036 67.2148 38.6875 67.7305 38.875C68.2513 39.0573 68.8216 39.1484 69.4414 39.1484C70.1237 39.1484 70.7305 39.0417 71.2617 38.8281C71.7982 38.6094 72.2201 38.3073 72.5273 37.9219C72.8346 37.5312 72.9883 37.0755 72.9883 36.5547C72.9883 36.0807 72.8529 35.6927 72.582 35.3906C72.3164 35.0885 71.9544 34.8385 71.4961 34.6406C71.043 34.4427 70.5299 34.2682 69.957 34.1172L68.0664 33.6016C66.7852 33.2526 65.7695 32.7396 65.0195 32.0625C64.2747 31.3854 63.9023 30.4896 63.9023 29.375C63.9023 28.4531 64.1523 27.6484 64.6523 26.9609C65.1523 26.2734 65.8294 25.7396 66.6836 25.3594C67.5378 24.974 68.5013 24.7812 69.5742 24.7812C70.6576 24.7812 71.6133 24.9714 72.4414 25.3516C73.2747 25.7318 73.931 26.2552 74.4102 26.9219C74.8893 27.5833 75.1393 28.3437 75.1602 29.2031H72.832ZM77.4746 27.0781V25H89.8574V27.0781H84.8652V41H82.459V27.0781H77.4746ZM92.5938 41V25H102.625V27.0781H95.0078V31.9531H102.102V34.0234H95.0078V38.9219H102.719V41H92.5938ZM118.764 25V41H116.545L108.412 29.2656H108.264V41H105.85V25H108.084L116.225 36.75H116.373V25H118.764ZM142.006 33C142.006 34.7083 141.693 36.1771 141.068 37.4062C140.443 38.6302 139.587 39.5729 138.498 40.2344C137.415 40.8906 136.183 41.2187 134.803 41.2187C133.417 41.2187 132.18 40.8906 131.092 40.2344C130.008 39.5729 129.154 38.6276 128.529 37.3984C127.904 36.1693 127.592 34.7031 127.592 33C127.592 31.2917 127.904 29.8255 128.529 28.6016C129.154 27.3724 130.008 26.4297 131.092 25.7734C132.18 25.112 133.417 24.7812 134.803 24.7812C136.183 24.7812 137.415 25.112 138.498 25.7734C139.587 26.4297 140.443 27.3724 141.068 28.6016C141.693 29.8255 142.006 31.2917 142.006 33ZM139.615 33C139.615 31.6979 139.404 30.6016 138.982 29.7109C138.566 28.8151 137.993 28.138 137.264 27.6797C136.54 27.2161 135.719 26.9844 134.803 26.9844C133.881 26.9844 133.058 27.2161 132.334 27.6797C131.61 28.138 131.037 28.8151 130.615 29.7109C130.199 30.6016 129.99 31.6979 129.99 33C129.99 34.3021 130.199 35.401 130.615 36.2969C131.037 37.1875 131.61 37.8646 132.334 38.3281C133.058 38.7865 133.881 39.0156 134.803 39.0156C135.719 39.0156 136.54 38.7865 137.264 38.3281C137.993 37.8646 138.566 37.1875 138.982 36.2969C139.404 35.401 139.615 34.3021 139.615 33ZM157.93 25V41H155.711L147.578 29.2656H147.43V41H145.016V25H147.25L155.391 36.75H155.539V25H157.93ZM176 29.2031C175.917 28.4635 175.573 27.8906 174.969 27.4844C174.365 27.0729 173.604 26.8672 172.688 26.8672C172.031 26.8672 171.464 26.9714 170.984 27.1797C170.505 27.3828 170.133 27.6641 169.867 28.0234C169.607 28.3776 169.477 28.7812 169.477 29.2344C169.477 29.6146 169.565 29.9427 169.742 30.2187C169.924 30.4948 170.161 30.7266 170.453 30.9141C170.75 31.0964 171.068 31.25 171.406 31.375C171.745 31.4948 172.07 31.5937 172.383 31.6719L173.945 32.0781C174.456 32.2031 174.979 32.3724 175.516 32.5859C176.052 32.7995 176.549 33.0807 177.008 33.4297C177.466 33.7786 177.836 34.2109 178.117 34.7266C178.404 35.2422 178.547 35.8594 178.547 36.5781C178.547 37.4844 178.313 38.2891 177.844 38.9922C177.38 39.6953 176.706 40.25 175.82 40.6562C174.94 41.0625 173.875 41.2656 172.625 41.2656C171.427 41.2656 170.391 41.0755 169.516 40.6953C168.641 40.3151 167.956 39.776 167.461 39.0781C166.966 38.375 166.693 37.5417 166.641 36.5781H169.063C169.109 37.1562 169.297 37.638 169.625 38.0234C169.958 38.4036 170.383 38.6875 170.898 38.875C171.419 39.0573 171.99 39.1484 172.609 39.1484C173.292 39.1484 173.898 39.0417 174.43 38.8281C174.966 38.6094 175.388 38.3073 175.695 37.9219C176.003 37.5312 176.156 37.0755 176.156 36.5547C176.156 36.0807 176.021 35.6927 175.75 35.3906C175.484 35.0885 175.122 34.8385 174.664 34.6406C174.211 34.4427 173.698 34.2682 173.125 34.1172L171.234 33.6016C169.953 33.2526 168.938 32.7396 168.188 32.0625C167.443 31.3854 167.07 30.4896 167.07 29.375C167.07 28.4531 167.32 27.6484 167.82 26.9609C168.32 26.2734 168.997 25.7396 169.852 25.3594C170.706 24.974 171.669 24.7812 172.742 24.7812C173.826 24.7812 174.781 24.9714 175.609 25.3516C176.443 25.7318 177.099 26.2552 177.578 26.9219C178.057 27.5833 178.307 28.3437 178.328 29.2031H176ZM181.432 41V25H187.135C188.38 25 189.411 25.2266 190.229 25.6797C191.046 26.1328 191.658 26.7526 192.064 27.5391C192.471 28.3203 192.674 29.2005 192.674 30.1797C192.674 31.1641 192.468 32.0495 192.057 32.8359C191.65 33.6172 191.036 34.237 190.213 34.6953C189.395 35.1484 188.367 35.375 187.127 35.375H183.205V33.3281H186.908C187.695 33.3281 188.333 33.1927 188.822 32.9219C189.312 32.6458 189.671 32.2708 189.9 31.7969C190.13 31.3229 190.244 30.7839 190.244 30.1797C190.244 29.5755 190.13 29.0391 189.9 28.5703C189.671 28.1016 189.309 27.7344 188.814 27.4688C188.325 27.2031 187.679 27.0703 186.877 27.0703H183.846V41H181.432ZM209.402 33C209.402 34.7083 209.09 36.1771 208.465 37.4062C207.84 38.6302 206.983 39.5729 205.895 40.2344C204.811 40.8906 203.579 41.2187 202.199 41.2187C200.814 41.2187 199.577 40.8906 198.488 40.2344C197.405 39.5729 196.551 38.6276 195.926 37.3984C195.301 36.1693 194.988 34.7031 194.988 33C194.988 31.2917 195.301 29.8255 195.926 28.6016C196.551 27.3724 197.405 26.4297 198.488 25.7734C199.577 25.112 200.814 24.7812 202.199 24.7812C203.579 24.7812 204.811 25.112 205.895 25.7734C206.983 26.4297 207.84 27.3724 208.465 28.6016C209.09 29.8255 209.402 31.2917 209.402 33ZM207.012 33C207.012 31.6979 206.801 30.6016 206.379 29.7109C205.962 28.8151 205.389 28.138 204.66 27.6797C203.936 27.2161 203.116 26.9844 202.199 26.9844C201.277 26.9844 200.454 27.2161 199.73 27.6797C199.007 28.138 198.434 28.8151 198.012 29.7109C197.595 30.6016 197.387 31.6979 197.387 33C197.387 34.3021 197.595 35.401 198.012 36.2969C198.434 37.1875 199.007 37.8646 199.73 38.3281C200.454 38.7865 201.277 39.0156 202.199 39.0156C203.116 39.0156 203.936 38.7865 204.66 38.3281C205.389 37.8646 205.962 37.1875 206.379 36.2969C206.801 35.401 207.012 34.3021 207.012 33ZM210.936 27.0781V25H223.318V27.0781H218.326V41H215.92V27.0781H210.936ZM228.469 25V41H226.055V25H228.469ZM231.984 41V25H241.906V27.0781H234.398V31.9531H241.195V34.0234H234.398V41H231.984ZM243.641 25H246.383L250.563 32.2734H250.734L254.914 25H257.656L251.852 34.7187V41H249.445V34.7187L243.641 25Z" fill="black"/>
<defs>
<linearGradient id="paint0_linear_276_73" x1="0" y1="32.5" x2="277" y2="32.5" gradientUnits="userSpaceOnUse">
<stop stop-color="white"/>
<stop offset="1" stop-color="#FFA9D8"/>
</linearGradient>
</defs>
</svg>
