<svg width="63" height="65" viewBox="0 0 63 65" fill="none" xmlns="http://www.w3.org/2000/svg">
<path fill-rule="evenodd" clip-rule="evenodd" d="M5.25276 0.18825C2.7546 0.814255 0.776062 2.87162 0.186555 5.45624C0.0227206 6.17439 0 9.48021 0 32.485C0 55.4898 0.0227206 58.7956 0.186555 59.5138C0.782694 62.1278 2.76381 64.1676 5.30864 64.7877C6.48569 65.0746 56.4111 65.0689 57.5896 64.7818C60.0385 64.1852 62.1044 62.1073 62.6311 59.7109C62.7079 59.3618 62.8222 58.9771 62.8852 58.8559C63.0274 58.5825 63.043 5.9147 62.9009 6.00545C62.8464 6.04023 62.7384 5.75604 62.6608 5.37386C62.2941 3.56693 60.8101 1.60818 59.1862 0.787727C57.5104 -0.0588777 59.4064 -0.00544132 31.3753 0.00407822C10.1812 0.0113131 5.83637 0.0420295 5.25276 0.18825ZM0.0566173 32.485C0.0566173 47.0404 0.0708637 52.9948 0.0884261 45.7172C0.105989 38.4394 0.105989 26.5305 0.0884261 19.2528C0.0708637 11.9751 0.0566173 17.9296 0.0566173 32.485ZM28.7348 7.74803C22.8467 8.43725 17.2475 11.4528 13.3721 16.022C6.95189 23.5915 5.55009 34.3486 9.81235 43.3373C10.9925 45.8259 12.2086 47.6217 14.0557 49.603C17.8927 53.7189 22.6247 56.2257 28.117 57.052C29.8792 57.3172 33.8536 57.2533 35.551 56.9327C45.8772 54.9822 53.7314 46.5735 55.1997 35.8972C55.4411 34.1418 55.438 30.6663 55.1936 28.9473C54.5989 24.7673 53.023 20.8351 50.6096 17.5099C49.7084 16.2682 47.712 14.1301 46.547 13.1586C41.571 9.00944 35.0029 7.01427 28.7348 7.74803ZM25.603 20.8248C21.6654 20.9912 16.8963 21.8716 15.8169 22.6311C14.216 23.7579 14.6273 26.2689 16.4922 26.7541C16.9999 26.8862 17.2171 26.8615 18.5075 26.5241C24.0747 25.0686 30.5888 25.0065 36.9633 26.3477C39.8412 26.9533 42.0543 27.7449 44.7468 29.1318C46.4763 30.0227 46.8802 30.1013 47.7096 29.7077C48.2939 29.4304 48.5558 29.1473 48.8102 28.518C49.1983 27.5579 48.9807 26.6094 48.2121 25.9121C47.715 25.461 45.9223 24.4934 44.2883 23.7944C40.4163 22.1379 35.1147 21.0138 30.4542 20.8613C29.4072 20.827 28.3571 20.785 28.1207 20.7678C27.8843 20.7507 26.7514 20.7764 25.603 20.8248ZM24.5591 29.392C23.2891 29.5138 21.1078 29.8519 20.0764 30.087C18.0345 30.5522 17.3992 30.7946 16.9407 31.2834C16.5478 31.7024 16.5148 31.7986 16.5148 32.5238C16.5148 33.5148 16.8254 34.0185 17.6327 34.3371C18.1911 34.5576 18.205 34.5563 19.7496 34.1584C22.6684 33.4064 23.4317 33.3206 27.261 33.3151C30.0725 33.3111 31.0512 33.3562 32.235 33.5448C35.6475 34.0887 39.3736 35.3338 41.8145 36.7458C43.5345 37.7409 44.1677 37.7994 45.0037 37.0409C45.8589 36.2649 45.839 35.0472 44.9576 34.2243C44.3032 33.6133 41.0516 31.9894 39.1126 31.3051C35.4025 29.996 32.1888 29.4393 27.9979 29.3799C26.4105 29.3574 24.8631 29.3629 24.5591 29.392ZM24.1907 37.5788C23.1067 37.6931 20.0722 38.199 18.928 38.4563C18.5317 38.5454 18.1172 38.7458 17.8841 38.9612C17.5394 39.2794 17.4973 39.3939 17.4973 40.0134C17.4973 40.8015 17.7203 41.1607 18.3923 41.4546C18.7524 41.6121 18.9645 41.5972 20.3573 41.3175C23.3596 40.7143 24.8267 40.5646 27.6909 40.5684C32.3497 40.5747 35.5076 41.3231 39.1486 43.2833C40.1113 43.8016 40.9327 44.1623 41.1504 44.1623C42.2685 44.1623 42.9576 42.9349 42.4306 41.8818C42.0509 41.1228 38.8437 39.484 35.9808 38.586C34.8027 38.2164 32.2911 37.719 30.8403 37.5677C29.3618 37.4136 25.7009 37.4198 24.1907 37.5788Z" fill="white"/>
</svg>
